<svg width="97" height="115" viewBox="0 0 97 115" fill="none" xmlns="http://www.w3.org/2000/svg">
<circle cx="19.9536" cy="14.0698" r="2" fill="white"/>
<circle cx="77.6479" cy="14.0698" r="2" fill="white"/>
<path d="M83.3924 86.8323L83.3923 90.3198L96.7993 79.0677L94.5846 77.783L83.3924 86.8323Z" fill="white"/>
<path d="M14.209 86.8324L14.209 90.3198L0.802044 79.0678L3.01675 77.7831L14.209 86.8324Z" fill="white"/>
<path d="M4.22789 57.0605H92.881L96.7993 79.0605H0.799316L4.22789 57.0605Z" fill="white"/>
<path d="M60.8008 102.061C60.8008 108.688 55.4282 114.061 48.8008 114.061C42.1734 114.061 36.8008 108.688 36.8008 102.061C36.8008 95.4331 42.1734 90.0605 48.8008 90.0605C55.4282 90.0605 60.8008 95.4331 60.8008 102.061Z" fill="white"/>
<path d="M44.8008 9.06055L48.8008 5.06055L52.8008 9.06055L48.8008 17.0605L44.8008 9.06055Z" fill="#F03C23"/>
<path fill-rule="evenodd" clip-rule="evenodd" d="M24.6415 8.58887C30.1299 9.76396 35.6821 10.5383 41.2546 10.912L41.8085 12.0199C36.2079 11.6743 30.6261 10.9278 25.1062 9.78047C23.8495 11.465 22.2741 12.8979 20.4687 13.9901V92.131C22.2741 93.2232 23.8495 94.6561 25.1062 96.3406C28.2375 95.6897 31.3887 95.1679 34.552 94.775C34.3605 95.1488 34.1833 95.531 34.021 95.9211C30.8793 96.3296 27.7502 96.8666 24.6415 97.5322C23.2982 95.5541 21.5007 93.9094 19.3987 92.7479V13.3731C21.5007 12.2117 23.2982 10.567 24.6415 8.58887ZM63.5515 95.8519C66.8755 96.2682 70.1859 96.8283 73.4734 97.5321C74.6987 95.7282 76.3019 94.2017 78.1697 93.0661V13.055C76.3019 11.9193 74.6987 10.3928 73.4734 8.58889C67.8111 9.80121 62.0809 10.587 56.3305 10.9463L55.778 12.0513C61.5559 11.7208 67.3153 10.9639 73.0088 9.78047C74.137 11.2924 75.522 12.6014 77.0997 13.6433V92.4777C75.522 93.5196 74.137 94.8286 73.0088 96.3406C69.6968 95.6521 66.3625 95.108 63.0152 94.7083C63.2085 95.0811 63.3875 95.4626 63.5515 95.8519Z" fill="white"/>
<path fill-rule="evenodd" clip-rule="evenodd" d="M22.1045 3.1754C28.6394 4.79791 35.2843 5.82174 41.958 6.24688L44.3343 3.87062C37.0129 3.55321 29.7157 2.50003 22.5544 0.711077C21.7258 0.504084 20.899 0.287241 20.0742 0.0605469C20.0742 0.927787 19.9362 1.7628 19.681 2.54482C18.6498 5.7044 15.7048 7.99897 12.2153 8.05933V98.0618C15.7048 98.1221 18.6498 100.417 19.681 103.576C19.9362 104.358 20.0742 105.193 20.0742 106.061C20.899 105.834 21.7258 105.617 22.5544 105.41C25.9604 104.559 29.3971 103.875 32.8525 103.357C32.8183 102.929 32.8008 102.497 32.8008 102.061C32.8008 101.647 32.8165 101.236 32.8474 100.83C29.2426 101.358 25.6573 102.064 22.1045 102.946C21.0343 99.4954 18.2328 96.807 14.7153 95.8956V10.2255C18.2328 9.31409 21.0343 6.62564 22.1045 3.1754ZM64.7479 100.751C64.7829 101.183 64.8008 101.62 64.8008 102.061C64.8008 102.47 64.7854 102.876 64.7552 103.277C68.3928 103.804 72.0104 104.515 75.5939 105.41C76.4225 105.617 77.2493 105.834 78.0741 106.061C78.0741 105.193 78.2121 104.358 78.4674 103.576C79.4443 100.583 82.1387 98.3664 85.3864 98.0899V8.03118C82.1387 7.75466 79.4443 5.53788 78.4674 2.5448C78.2121 1.76279 78.0741 0.927789 78.0741 0.0605525C77.2493 0.287245 76.4225 0.504088 75.5939 0.71108C68.2616 2.54276 60.7868 3.6031 53.2894 3.8921L55.6758 6.27847C62.5224 5.87396 69.341 4.8396 76.0438 3.17541C77.0579 6.44478 79.6265 9.02958 82.8864 10.0672V96.0539C79.6265 97.0915 77.0579 99.6763 76.0438 102.946C72.3094 102.018 68.539 101.287 64.7479 100.751Z" fill="white"/>
</svg>
