<svg width="88" height="88" viewBox="0 0 88 88" fill="none" xmlns="http://www.w3.org/2000/svg">
<path d="M9.59846 9.21516C12.2255 6.58816 15.0763 4.3245 18.0892 2.42359C26.2067 7.29362 35.1196 9.99387 44.4791 9.99387C53.6758 9.99387 62.4416 7.3869 70.4453 2.67544C73.3127 4.5234 76.0294 6.70318 78.5414 9.21516C81.2817 11.9555 83.6269 14.9396 85.5774 18.0972C81.0713 25.9493 78.5844 34.5208 78.5844 43.5033C78.5844 52.5578 81.1114 61.1952 85.6861 69.0987C83.7141 72.322 81.333 75.3664 78.5414 78.1581C75.5201 81.1794 72.2022 83.7205 68.6823 85.7818C60.8341 81.2808 52.2675 78.7969 43.2907 78.797C34.6195 78.7969 26.3306 81.1145 18.7018 85.3296C15.4623 83.3525 12.4026 80.9622 9.59846 78.1581C7.03978 75.5994 4.82586 72.8281 2.95578 69.9016C7.14073 62.2968 9.44081 54.0374 9.44081 45.3988C9.44063 36.0857 6.76717 27.2147 1.94255 19.1295C4.00969 15.5889 6.56127 12.2524 9.59846 9.21516Z" fill="#1D1D1D" stroke="white" stroke-width="2.5"/>
<path d="M15 20L19 16L23 20L19 28L15 20Z" fill="#F03C23"/>
<path d="M64 69L68 73L72 69L68 61L64 69Z" fill="#F03C23"/>
<path d="M19 73L15 69L19 65L27 69L19 73Z" fill="#F03C23"/>
<path d="M68 24L72 20L68 16L60 20L68 24Z" fill="#F03C23"/>
<path d="M16.2259 45.3984C16.2257 36.1937 13.9363 27.4332 9.83907 19.3969C11.1808 17.5118 12.6992 15.7097 14.3963 14.0126C15.7054 12.7035 17.0769 11.5008 18.5006 10.4036C26.5303 14.4933 35.2827 16.7786 44.4792 16.7786C53.4849 16.7786 62.0666 14.5871 69.961 10.654C71.2698 11.683 72.5334 12.8023 73.7437 14.0126C75.1805 15.4495 76.4893 16.9615 77.671 18.5352C73.8964 26.2889 71.7994 34.694 71.7994 43.503C71.7994 52.3963 73.9368 60.8778 77.7792 68.6925C76.5693 70.3185 75.2246 71.8792 73.7437 73.3601C72.0429 75.0609 70.2365 76.5824 68.3468 77.9263C60.5687 74.1246 52.133 72.0116 43.2905 72.0118C34.8053 72.0116 26.6918 73.9577 19.1736 77.477C17.508 76.246 15.9103 74.8742 14.3962 73.3601C13.1106 72.0745 11.9276 70.7286 10.8463 69.3321C14.3116 61.8653 16.2259 53.8144 16.2259 45.3984Z" stroke="white" stroke-width="1.07"/>
</svg>
