<svg width="97" height="114" viewBox="0 0 97 114" fill="none" xmlns="http://www.w3.org/2000/svg">
<path d="M27.5987 1.94656C39.9896 9.85394 55.941 9.98385 68.3968 2.17088C71.0423 9.26567 76.6666 14.906 83.75 17.5733V97.1787L48.0037 112.637L12.25 96.9471V17.337C19.3294 14.6712 24.9513 9.03571 27.5987 1.94656Z" fill="#1D1D1D" stroke="white" stroke-width="2.5"/>
<path d="M3.42857 57H92.0816L96 79H0L3.42857 57Z" fill="white"/>
<path d="M82.593 86.7646L84.8039 88.0411L95.9961 78.9918L93.7853 77.7153L82.593 86.7646Z" fill="white"/>
<path d="M82.593 86.7646L84.8039 88.0411L96 79L93.7853 77.7153L82.593 86.7646Z" fill="white"/>
<path d="M13.4097 86.7646L11.1988 88.0411L0.00268537 79L2.21739 77.7153L13.4097 86.7646Z" fill="white"/>
<path d="M18.742 91.5696V21.6885C23.6358 19.1408 27.7448 15.2998 30.6186 10.6153C41.5968 15.6827 54.3193 15.7758 65.3524 10.7954C68.2275 15.5012 72.3476 19.3594 77.2578 21.9156V91.7726L48.0184 104.417L18.742 91.5696Z" stroke="white" stroke-width="1.07"/>
<path d="M44 88.2427L48 84.2427L52 88.2427L48 96.2427L44 88.2427Z" fill="#F03C23"/>
<circle cx="18.8274" cy="21.8428" r="2" fill="white"/>
<circle cx="77.2571" cy="21.8428" r="2" fill="white"/>
<circle cx="48" cy="104" r="2" fill="white"/>
</svg>
