<svg width="98" height="114" viewBox="0 0 98 114" fill="none" xmlns="http://www.w3.org/2000/svg">
<path d="M84.226 1.50071L84.226 97.5164C84.226 97.5593 84.2128 97.6115 84.1682 97.6716C84.121 97.735 84.0442 97.7976 83.9442 97.8367C80.9645 99.0009 78.584 101.355 77.3853 104.317C77.2973 104.535 77.1392 104.593 77.0667 104.593L20.2661 104.593C20.1935 104.593 20.0354 104.535 19.9474 104.317C18.8143 101.517 16.6253 99.2607 13.873 98.0388C13.6672 97.9474 13.6123 97.7959 13.6123 97.7251L13.6123 1.5007C13.6123 1.37847 13.7114 1.27937 13.8336 1.27937L84.0046 1.27938C84.1269 1.27938 84.226 1.37847 84.226 1.50071Z" fill="#1D1D1D" stroke="white" stroke-width="2.55734"/>
<path d="M84.2869 84.6525C84.9594 84.6525 85.5046 84.1073 85.5046 83.4347L85.5046 1.50018C85.5046 0.671754 84.8331 0.000183313 84.0046 0.00018324L13.7307 0.000177097C12.9435 0.000177028 12.2903 0.608567 12.2344 1.39368L5.93973 89.8343C5.89166 90.5096 6.30187 91.1334 6.94093 91.3568L48.2662 105.804C48.3954 105.849 48.5312 105.872 48.6681 105.872V105.872C50.0394 105.872 50.3644 103.957 49.07 103.505L9.50256 89.6722C8.8635 89.4488 8.45329 88.825 8.50135 88.1497L14.5028 3.82926C14.5587 3.04414 15.2119 2.43575 15.999 2.43575L81.5691 2.43576C82.3975 2.43576 83.0691 3.10733 83.0691 3.93576L83.0691 83.4347C83.0691 84.1073 83.6143 84.6525 84.2869 84.6525V84.6525Z" fill="white"/>
<path d="M84.2869 92.7013C84.9594 92.7013 85.5046 92.1561 85.5046 91.4835L85.5046 1.50019C85.5046 0.671758 84.8331 0.000183313 84.0046 0.00018324L13.6235 0.000177087C12.8818 0.000177022 12.2515 0.542186 12.1404 1.27547L0.362403 79.0101C0.261834 79.6739 0.614546 80.3236 1.22594 80.6009L56.7097 105.763C56.8677 105.835 57.0391 105.872 57.2126 105.872V105.872C58.5229 105.872 58.9089 104.086 57.7156 103.545L3.91008 79.1438C3.29868 78.8666 2.94597 78.2168 3.04654 77.5531L14.2347 3.71105C14.3458 2.97776 14.9762 2.43575 15.7178 2.43575L81.5691 2.43576C82.3975 2.43576 83.0691 3.10733 83.0691 3.93576L83.0691 91.4835C83.0691 92.1561 83.6143 92.7013 84.2869 92.7013V92.7013Z" fill="white"/>
<path d="M40.7876 105.872C40.9611 105.872 41.1326 105.835 41.2906 105.763L96.7743 80.6009C97.3857 80.3236 97.7384 79.6739 97.6379 79.0101L85.8599 1.27547C85.7488 0.542191 85.1185 0.000182262 84.3768 0.000182197L13.9956 0.000176044C13.1672 0.000175972 12.4956 0.671749 12.4956 1.50018L12.4956 84.1664C12.4956 84.839 13.0408 85.3842 13.7134 85.3842V85.3842C14.386 85.3842 14.9312 84.839 14.9312 84.1664L14.9312 3.93575C14.9312 3.10732 15.6028 2.43575 16.4312 2.43575L82.2825 2.43576C83.0241 2.43576 83.6544 2.97777 83.7655 3.71105L94.9537 77.5531C95.0543 78.2168 94.7016 78.8666 94.0902 79.1439L40.2846 103.545C39.0914 104.086 39.4774 105.872 40.7876 105.872V105.872Z" fill="white"/>
<path d="M49.1702 105.872C49.3071 105.872 49.4429 105.849 49.5721 105.804L90.8974 91.3568C91.5364 91.1334 91.9466 90.5096 91.8986 89.8343L85.6039 1.39367C85.548 0.608553 84.8948 0.000162963 84.1076 0.000162894L13.8337 0.00015675C13.0052 0.000156678 12.3337 0.671732 12.3337 1.50016L12.3336 91.4835C12.3336 92.1561 12.8789 92.7013 13.5514 92.7013V92.7013C14.224 92.7013 14.7692 92.1561 14.7692 91.4835L14.7692 3.93573C14.7692 3.1073 15.4408 2.43573 16.2692 2.43573L81.8393 2.43574C82.6264 2.43574 83.2796 3.04413 83.3355 3.82925L89.3369 88.1498C89.385 88.825 88.9748 89.4488 88.3357 89.6722L48.7683 103.505C47.4738 103.957 47.7989 105.872 49.1702 105.872V105.872Z" fill="white"/>
<circle cx="49.1924" cy="101.756" r="12" fill="white"/>
<path d="M4.62095 56.7563H93.274L97.1924 78.7563H1.19238L4.62095 56.7563Z" fill="white"/>
<rect x="20.1924" y="21.7563" width="58" height="19" rx="3" fill="#303030"/>
</svg>
