<svg width="97" height="115" viewBox="0 0 97 115" fill="none" xmlns="http://www.w3.org/2000/svg">
<path d="M27.9369 2.65897C40.3278 10.5663 56.2791 10.6962 68.7349 2.88329C71.3805 9.97807 77.0047 15.6184 84.0881 18.2857V97.8911L48.3418 113.349L12.5881 97.6595V18.0494C19.6675 15.3836 25.2895 9.74811 27.9369 2.65897Z" stroke="#1D1D1D" stroke-width="2.5"/>
<path d="M3.76671 57.7124H92.4198L96.3381 79.7124H0.338135L3.76671 57.7124Z" fill="#1D1D1D"/>
<path d="M82.9312 87.4771L85.142 88.7535L96.3343 79.7042L94.1234 78.4277L82.9312 87.4771Z" fill="#1D1D1D"/>
<path d="M82.9312 87.4771L85.142 88.7535L96.3381 79.7124L94.1234 78.4277L82.9312 87.4771Z" fill="#1D1D1D"/>
<path d="M13.7478 87.4771L11.537 88.7535L0.34082 79.7124L2.55552 78.4277L13.7478 87.4771Z" fill="#1D1D1D"/>
<path d="M19.0802 92.282V22.4009C23.9739 19.8532 28.083 16.0122 30.9567 11.3277C41.9349 16.3951 54.6574 16.4882 65.6906 11.5078C68.5656 16.2136 72.6858 20.0718 77.5959 22.628V92.485L48.3565 105.129L19.0802 92.282Z" stroke="#1D1D1D" stroke-width="1.07"/>
<path d="M44.3381 88.9551L48.3381 84.9551L52.3381 88.9551L48.3381 96.9551L44.3381 88.9551Z" fill="#F03C23"/>
<circle cx="19.1655" cy="22.5552" r="2" fill="#1D1D1D"/>
<circle cx="77.5952" cy="22.5552" r="2" fill="#1D1D1D"/>
<circle cx="48.3381" cy="104.712" r="2" fill="#1D1D1D"/>
</svg>
