<svg width="99" height="114" viewBox="0 0 99 114" fill="none" xmlns="http://www.w3.org/2000/svg">
<mask id="path-1-inside-1_795_130" fill="white">
<path fill-rule="evenodd" clip-rule="evenodd" d="M12.8221 8.21411L12.8221 97.9399C12.8221 98.5912 13.2474 99.158 13.8426 99.4223C16.2926 100.51 18.2422 102.52 19.2507 105.012C19.5028 105.635 20.0825 106.087 20.7546 106.087L77.5552 106.087C78.2273 106.087 78.8069 105.635 79.0591 105.012C80.126 102.376 82.2463 100.279 84.8981 99.2426C85.5312 98.9952 85.9932 98.411 85.9932 97.7313L85.9932 8.18618C81.8969 7.83741 78.681 4.40205 78.6809 0.215553L20.6809 0.215548C20.6808 4.58655 17.1752 8.13876 12.8221 8.21411Z"/>
</mask>
<path fill-rule="evenodd" clip-rule="evenodd" d="M12.8221 8.21411L12.8221 97.9399C12.8221 98.5912 13.2474 99.158 13.8426 99.4223C16.2926 100.51 18.2422 102.52 19.2507 105.012C19.5028 105.635 20.0825 106.087 20.7546 106.087L77.5552 106.087C78.2273 106.087 78.8069 105.635 79.0591 105.012C80.126 102.376 82.2463 100.279 84.8981 99.2426C85.5312 98.9952 85.9932 98.411 85.9932 97.7313L85.9932 8.18618C81.8969 7.83741 78.681 4.40205 78.6809 0.215553L20.6809 0.215548C20.6808 4.58655 17.1752 8.13876 12.8221 8.21411Z" fill="#1D1D1D"/>
<path d="M12.8221 8.21411L12.7779 5.65715L10.2648 5.70065L10.2648 8.21411L12.8221 8.21411ZM12.8221 97.9399L10.2648 97.9399L12.8221 97.9399ZM13.8426 99.4223L12.8049 101.76L12.8049 101.76L13.8426 99.4223ZM19.2507 105.012L16.8801 105.971L16.8801 105.971L19.2507 105.012ZM20.7546 106.087L20.7546 103.53H20.7546V106.087ZM77.5552 106.087L77.5552 108.644H77.5552V106.087ZM79.0591 105.012L81.4296 105.971L81.4296 105.971L79.0591 105.012ZM84.8981 99.2426L83.9674 96.8606L83.9674 96.8606L84.8981 99.2426ZM85.9932 97.7313L83.4358 97.7313V97.7313H85.9932ZM85.9932 8.18618L88.5505 8.18618L88.5505 5.83733L86.2101 5.63806L85.9932 8.18618ZM78.6809 0.215553L81.2383 0.215483L81.2382 -2.34179L78.6809 -2.34179L78.6809 0.215553ZM20.6809 0.215548L20.6809 -2.3418L18.1236 -2.3418L18.1236 0.21548L20.6809 0.215548ZM10.2648 8.21411L10.2648 97.9399L15.3795 97.9399L15.3795 8.21411L10.2648 8.21411ZM10.2648 97.9399C10.2648 99.7519 11.4308 101.15 12.8049 101.76L14.8804 97.085C15.0641 97.1665 15.3795 97.4304 15.3795 97.9399L10.2648 97.9399ZM12.8049 101.76C14.6503 102.579 16.1211 104.096 16.8801 105.971L21.6213 104.052C20.3634 100.944 17.935 98.4411 14.8803 97.085L12.8049 101.76ZM16.8801 105.971C17.4607 107.406 18.8835 108.644 20.7546 108.644V103.53C21.2815 103.53 21.545 103.864 21.6213 104.052L16.8801 105.971ZM20.7546 108.644L77.5552 108.644L77.5552 103.53L20.7546 103.53L20.7546 108.644ZM77.5552 108.644C79.4263 108.644 80.8491 107.406 81.4296 105.971L76.6885 104.052C76.7648 103.864 77.0283 103.53 77.5552 103.53V108.644ZM81.4296 105.971C82.2329 103.987 83.8327 102.404 85.8287 101.625L83.9674 96.8606C80.6598 98.1529 78.0191 100.765 76.6885 104.052L81.4296 105.971ZM85.8287 101.625C87.285 101.056 88.5505 99.6241 88.5505 97.7313H83.4358C83.4358 97.198 83.7774 96.9348 83.9674 96.8606L85.8287 101.625ZM88.5505 97.7313L88.5505 8.18618L83.4358 8.18618L83.4358 97.7313L88.5505 97.7313ZM86.2101 5.63806C83.426 5.40101 81.2383 3.06237 81.2383 0.215483L76.1236 0.215623C76.1237 5.74173 80.3679 10.2738 85.7762 10.7343L86.2101 5.63806ZM78.6809 -2.34179L20.6809 -2.3418L20.6809 2.77289L78.6809 2.7729L78.6809 -2.34179ZM18.1236 0.21548C18.1235 3.18896 15.7385 5.6059 12.7779 5.65715L12.8664 10.7711C18.6119 10.6716 23.2381 5.98415 23.2383 0.215615L18.1236 0.21548Z" fill="white" mask="url(#path-1-inside-1_795_130)"/>
<path d="M21.8707 67.2325L21.8707 15.4C24.4621 14.5366 26.5036 12.4186 27.3547 9.74398L72.0117 9.74398C72.8199 12.2835 74.7009 14.3207 77.1068 15.2594L77.1068 67.2325L21.8707 67.2325Z" fill="#1D1D1D" stroke="white" stroke-width="1.07"/>
<circle cx="27.9855" cy="10.0954" r="2.1198" fill="white"/>
<circle cx="71.4423" cy="10.0954" r="2.1198" fill="white"/>
<path d="M45.4888 10.2939L49.4888 6.29395L53.4888 10.2939L49.4888 18.2939L45.4888 10.2939Z" fill="#F03C23"/>
<path fill-rule="evenodd" clip-rule="evenodd" d="M12.822 8.21391V34.5244L12.8222 34.5211L12.8222 56.9713L12.822 57.0935H4.20426L0.850995 79.2251C0.750425 79.8888 1.10314 80.5386 1.71454 80.8159L6.91756 83.1755L6.42832 90.0493C6.38025 90.7246 6.79046 91.3484 7.42952 91.5718L37.6822 102.148C37.7767 108.694 43.1125 113.971 49.681 113.971C56.3084 113.971 61.681 108.599 61.681 101.971L61.681 101.956L91.3859 91.5718C92.025 91.3484 92.4352 90.7246 92.3872 90.0493L91.903 83.2467L97.2629 80.8159C97.8743 80.5386 98.227 79.8888 98.1264 79.2251L94.7732 57.0935H85.9932V8.18598C85.1356 8.11296 84.3166 7.90467 83.5577 7.58252L83.5577 56.9713H15.4198L15.4198 7.734C14.6072 8.03006 13.7332 8.19815 12.822 8.21391ZM83.558 91.7282L61.4194 99.4678C61.2652 98.7412 61.0453 98.039 60.7661 97.3675L83.5577 87.0313V91.6985C83.5577 91.7084 83.5578 91.7184 83.558 91.7282ZM83.5577 84.357L59.6034 95.2205C57.4434 92.0518 53.8051 89.9713 49.681 89.9713C45.4991 89.9713 41.8169 92.1104 39.6687 95.3542L15.4198 84.357V78.9713H83.5577V84.357ZM85.9932 78.9713V83.2524L89.3532 81.7287L89.157 78.9713H85.9932ZM91.5987 78.9713L91.7186 80.6559L94.5788 79.3588C94.7823 79.2665 94.9572 79.1329 95.0962 78.9713H91.5987ZM3.88128 78.9713H7.21679L7.10195 80.5848L4.39867 79.3588C4.19515 79.2665 4.02029 79.1329 3.88128 78.9713ZM9.65852 78.9713H12.8222V83.179L9.46733 81.6575L9.65852 78.9713ZM15.2578 86.9579L38.5358 97.5147C38.2629 98.1965 38.0508 98.9092 37.9061 99.6461L15.2575 91.7282L15.2577 91.7177L15.2578 91.6985V86.9579ZM12.8222 85.8533L12.8222 90.8769L9.99115 89.8872C9.35209 89.6638 8.94188 89.04 8.98995 88.3647L9.28294 84.2482L12.8222 85.8533ZM89.5376 84.3194L89.8255 88.3647C89.8736 89.04 89.4634 89.6638 88.8243 89.8872L85.9932 90.8769V85.9268L89.5376 84.3194Z" fill="white"/>
<rect x="83.5884" y="42.8242" width="2.55286" height="17.9506" transform="rotate(-30 83.5884 42.8242)" fill="white"/>
<rect width="2.55286" height="17.9506" transform="matrix(-0.866025 -0.5 -0.5 0.866025 15.3887 42.8242)" fill="white"/>
</svg>
