<svg width="261" height="75" viewBox="0 0 261 75" fill="none" xmlns="http://www.w3.org/2000/svg">
<path d="M17.625 1.54979L243.472 1.5498C246.137 8.62921 251.773 14.2511 258.862 16.8985C250.955 29.2894 250.825 45.2408 258.638 57.6966C251.543 60.3421 245.902 65.9664 243.235 73.0498L17.3935 73.0498L1.93561 37.3035L17.625 1.54979Z" stroke="white" stroke-width="2.5"/>
<path d="M23.0025 8.04232L92.8837 8.04232C95.4314 12.9361 99.2723 17.0451 103.957 19.9189C98.8895 30.8971 98.7964 43.6196 103.777 54.6527C99.0709 57.5278 95.2127 61.6479 92.6565 66.5581L22.7996 66.5581L10.1555 37.3186L23.0025 8.04232Z" stroke="white" stroke-width="1.07"/>
<path d="M26.3295 33.2998L30.3295 37.2998L26.3295 41.2998L18.3295 37.2998L26.3295 33.2998Z" fill="#F03C23"/>
<circle cx="92.7294" cy="8.12744" r="2" transform="rotate(90 92.7294 8.12744)" fill="white"/>
<circle cx="92.7292" cy="66.5571" r="2" transform="rotate(90 92.7292 66.5571)" fill="white"/>
<circle cx="10.5721" cy="37.2998" r="2" transform="rotate(90 10.5721 37.2998)" fill="white"/>
</svg>
