<svg width="97" height="115" viewBox="0 0 97 115" fill="none" xmlns="http://www.w3.org/2000/svg">
<path d="M27.9369 2.79959C40.3278 10.707 56.2791 10.8369 68.7349 3.02391C71.3805 10.1187 77.0047 15.7591 84.0881 18.4263V98.0317L48.3418 113.49L12.5881 97.8002V18.19C19.6675 15.5242 25.2895 9.88874 27.9369 2.79959Z" fill="#1D1D1D" stroke="white" stroke-width="2.5"/>
<path d="M3.76671 57.853H92.4198L96.3381 79.853H0.338135L3.76671 57.853Z" fill="white"/>
<path d="M82.9312 87.6177L85.142 88.8941L96.3343 79.8448L94.1234 78.5683L82.9312 87.6177Z" fill="white"/>
<path d="M82.9312 87.6177L85.142 88.8941L96.3381 79.853L94.1234 78.5683L82.9312 87.6177Z" fill="white"/>
<path d="M13.7478 87.6177L11.537 88.8941L0.34082 79.853L2.55552 78.5683L13.7478 87.6177Z" fill="white"/>
<path d="M19.0802 92.4227V22.5415C23.9739 19.9938 28.083 16.1528 30.9567 11.4683C41.9349 16.5357 54.6574 16.6288 65.6906 11.6484C68.5656 16.3543 72.6858 20.2124 77.5959 22.7686V92.6256L48.3565 105.27L19.0802 92.4227Z" stroke="white" stroke-width="1.07"/>
<path d="M44.3381 89.0957L48.3381 85.0957L52.3381 89.0957L48.3381 97.0957L44.3381 89.0957Z" fill="#F03C23"/>
<circle cx="19.1655" cy="22.6958" r="2" fill="white"/>
<circle cx="77.5952" cy="22.6958" r="2" fill="white"/>
<circle cx="48.3381" cy="104.853" r="2" fill="white"/>
</svg>
