<svg width="98" height="115" viewBox="0 0 98 115" fill="none" xmlns="http://www.w3.org/2000/svg">
<mask id="path-1-inside-1_834_79" fill="white">
<path fill-rule="evenodd" clip-rule="evenodd" d="M12.0935 8.69702C16.4467 8.62172 19.9524 5.06938 19.9524 0.698242L77.9523 0.698248C77.9524 4.88475 81.1683 8.32011 85.2645 8.66888L85.2645 98.214C85.2645 98.8937 84.8026 99.4779 84.1694 99.7253C81.5177 100.761 79.3973 102.858 78.3304 105.495C78.0783 106.118 77.4987 106.57 76.8266 106.57L20.026 106.57C19.3539 106.57 18.7742 106.118 18.5221 105.495C17.5136 103.003 15.564 100.993 13.114 99.905C12.5188 99.6407 12.0935 99.0739 12.0935 98.4226L12.0935 8.69702Z"/>
</mask>
<path d="M19.9524 0.698242L19.9524 -1.8591L17.395 -1.8591V0.698242H19.9524ZM12.0935 8.69702L12.0493 6.14006L9.53617 6.18353L9.53617 8.69702L12.0935 8.69702ZM77.9523 0.698248L80.5096 0.698178L80.5096 -1.8591L77.9523 -1.8591L77.9523 0.698248ZM85.2645 8.66888L87.8219 8.66888L87.8219 6.32002L85.4815 6.12075L85.2645 8.66888ZM85.2645 98.214L82.7072 98.214V98.214H85.2645ZM84.1694 99.7253L83.2388 97.3433L83.2388 97.3433L84.1694 99.7253ZM78.3304 105.495L80.701 106.454L80.701 106.454L78.3304 105.495ZM76.8266 106.57L76.8266 109.127H76.8266V106.57ZM20.026 106.57L20.026 104.012H20.026V106.57ZM18.5221 105.495L16.1515 106.454L16.1515 106.454L18.5221 105.495ZM13.114 99.905L12.0763 102.242L12.0763 102.242L13.114 99.905ZM12.0935 98.4226L9.53616 98.4226V98.4226H12.0935ZM17.395 0.698242C17.395 3.67182 15.01 6.08885 12.0493 6.14006L12.1377 11.254C17.8834 11.1546 22.5097 6.46695 22.5097 0.698242H17.395ZM77.9523 -1.8591L19.9524 -1.8591L19.9524 3.25559L77.9523 3.25559L77.9523 -1.8591ZM85.4815 6.12075C82.6974 5.8837 80.5097 3.54507 80.5096 0.698178L75.3949 0.698318C75.3951 6.22443 79.6392 10.7565 85.0476 11.217L85.4815 6.12075ZM87.8219 98.214L87.8219 8.66888L82.7072 8.66888L82.7072 98.214L87.8219 98.214ZM85.1001 102.107C86.5564 101.538 87.8219 100.107 87.8219 98.214H82.7072C82.7072 97.6806 83.0487 97.4175 83.2388 97.3433L85.1001 102.107ZM80.701 106.454C81.5043 104.469 83.1041 102.887 85.1001 102.107L83.2388 97.3433C79.9312 98.6356 77.2904 101.248 75.9599 104.535L80.701 106.454ZM76.8266 109.127C78.6977 109.127 80.1204 107.888 80.701 106.454L75.9599 104.535C76.0362 104.347 76.2996 104.012 76.8266 104.012V109.127ZM20.026 109.127L76.8266 109.127L76.8266 104.012L20.026 104.012L20.026 109.127ZM16.1515 106.454C16.7321 107.888 18.1548 109.127 20.026 109.127V104.012C20.5529 104.012 20.8164 104.347 20.8926 104.535L16.1515 106.454ZM12.0763 102.242C13.9217 103.062 15.3925 104.579 16.1515 106.454L20.8926 104.535C19.6348 101.427 17.2063 98.9238 14.1517 97.5677L12.0763 102.242ZM9.53616 98.4226C9.53616 100.235 10.7022 101.632 12.0763 102.242L14.1517 97.5677C14.3354 97.6492 14.6508 97.9131 14.6508 98.4226H9.53616ZM9.53617 8.69702L9.53616 98.4226L14.6508 98.4226L14.6509 8.69702L9.53617 8.69702Z" fill="white" mask="url(#path-1-inside-1_834_79)"/>
<path d="M21.1422 67.7154L21.1422 15.8829C23.7335 15.0195 25.7751 12.9015 26.6262 10.2269L71.2832 10.2269C72.0913 12.7664 73.9724 14.8036 76.3783 15.7423L76.3783 67.7154L21.1422 67.7154Z" stroke="white" stroke-width="1.07"/>
<circle cx="27.257" cy="10.5783" r="2.1198" fill="white"/>
<circle cx="70.7138" cy="10.5783" r="2.1198" fill="white"/>
<path d="M44.7603 10.7769L48.7603 6.77686L52.7603 10.7769L48.7603 18.7769L44.7603 10.7769Z" fill="#F03C23"/>
<path fill-rule="evenodd" clip-rule="evenodd" d="M12.0935 8.69682V35.0074L12.0937 35.004L12.0937 57.4542L12.0935 57.5765H3.47574L0.122479 79.708C0.0219098 80.3717 0.374622 81.0215 0.98602 81.2988L6.18904 83.6584L5.6998 90.5322C5.65174 91.2075 6.06195 91.8313 6.701 92.0547L36.9537 102.631C37.0482 109.177 42.384 114.454 48.9525 114.454C55.5799 114.454 60.9525 109.082 60.9525 102.454L60.9524 102.439L90.6574 92.0547C91.2965 91.8313 91.7067 91.2075 91.6586 90.5322L91.1745 83.7296L96.5344 81.2988C97.1458 81.0215 97.4985 80.3717 97.3979 79.708L94.0447 57.5765H85.2646V8.66889C84.4071 8.59587 83.5881 8.38758 82.8292 8.06543L82.8291 57.4542H14.6913L14.6913 8.21691C13.8787 8.51297 13.0047 8.68106 12.0935 8.69682ZM82.8295 92.2112L60.6909 99.9507C60.5367 99.2241 60.3168 98.5219 60.0376 97.8504L82.8291 87.5142V92.1814C82.8291 92.1914 82.8293 92.2013 82.8295 92.2112ZM82.8291 84.8399L58.8749 95.7034C56.7149 92.5347 53.0766 90.4542 48.9525 90.4542C44.7706 90.4542 41.0883 92.5933 38.9402 95.8371L14.6913 84.8399V79.4542H82.8291V84.8399ZM85.2647 79.4542V83.7354L88.6247 82.2116L88.4284 79.4542H85.2647ZM90.8702 79.4542L90.9901 81.1389L93.8503 79.8417C94.0538 79.7494 94.2286 79.6159 94.3677 79.4542H90.8702ZM3.15276 79.4542H6.48827L6.37343 81.0677L3.67016 79.8417C3.46664 79.7494 3.29178 79.6158 3.15276 79.4542ZM8.93 79.4542H12.0937V83.6619L8.73881 82.1404L8.93 79.4542ZM14.5293 87.4408L37.8073 97.9976C37.5344 98.6794 37.3223 99.3921 37.1776 100.129L14.5289 92.2112L14.5291 92.2006L14.5293 92.1814V87.4408ZM12.0937 86.3362L12.0937 91.3598L9.26263 90.3701C8.62358 90.1467 8.21337 89.5229 8.26143 88.8476L8.55442 84.7311L12.0937 86.3362ZM88.8091 84.8023L89.097 88.8476C89.1451 89.5229 88.7349 90.1467 88.0958 90.3701L85.2647 91.3598V86.4097L88.8091 84.8023Z" fill="white"/>
<rect x="82.8599" y="43.3071" width="2.55286" height="17.9506" transform="rotate(-30 82.8599 43.3071)" fill="white"/>
<rect width="2.55286" height="17.9506" transform="matrix(-0.866025 -0.5 -0.5 0.866025 14.6602 43.3071)" fill="white"/>
</svg>
