<svg width="187" height="102" viewBox="0 0 187 102" fill="none" xmlns="http://www.w3.org/2000/svg">
<path d="M25.526 9.69534C23.7174 10.1475 22.8131 13.2509 22.8131 19.0055V52.6703C21.7444 52.6703 18.4355 54.7872 12.8863 59.021C8.11818 56.1025 4.23378 54.1295 1.23314 53.1019L0 52.6703C1.89082 52.6703 2.83622 49.7107 2.83622 43.7917V31.337L5.67245 30.9054C6.04239 30.8642 6.37123 30.782 6.65896 30.6587L8.01542 30.1655C11.5093 28.8912 14.2839 27.1648 16.3391 24.9863V17.6491C16.3391 15.5939 15.9075 13.0659 15.0443 10.0653C13.4001 4.31062 10.2145 1.10445 5.48748 0.446777C13.6262 1.35108 18.9493 4.94774 21.4566 11.2368C22.7309 10.2914 24.0873 9.77754 25.526 9.69534ZM16.3391 54.5817V28.5624L15.7842 28.8707C15.1676 29.0762 14.6333 29.3434 14.1811 29.6722C12.4547 30.6998 10.8311 31.2547 9.31021 31.337V44.9632C9.31021 46.4429 8.71419 47.9021 7.52216 49.3408C6.37123 50.7795 5.07643 51.6221 3.63776 51.8687C5.89852 51.951 7.72768 52.3415 9.12524 53.0402C10.0706 53.5335 11.6943 54.4378 13.9961 55.7531L16.3391 54.5817Z" fill="black"/>
<path d="M53.5024 61.1173C52.2282 61.1173 51.1389 60.809 50.2346 60.1924C47.8505 58.9182 45.9802 56.6985 44.6238 53.5335C41.0888 54.7666 37.8004 56.6985 34.7587 59.3292L28.9013 52.7936V29.6722C28.2025 29.179 27.5448 28.809 26.9282 28.5624L25.9417 28.1924C26.846 28.1924 27.7298 28.0486 28.593 27.7608C29.4973 27.4731 31.2648 26.7538 33.8955 25.6028L34.7587 25.1712V50.1423L38.7047 54.4583C41.4176 53.3485 43.2673 52.7114 44.2539 52.547V29.0556C43.2262 28.5624 42.5275 28.1719 42.1575 27.8842L41.2943 27.6375C41.9109 27.6375 42.8152 27.4526 44.0072 27.0826C46.4324 26.3016 48.3232 25.6234 49.6797 25.0479L50.6662 24.6163V52.3003C50.6662 57.5617 51.6116 60.5007 53.5024 61.1173Z" fill="black"/>
<path d="M77.3047 59.021C77.3047 59.432 77.243 59.7814 77.1197 60.0691C76.2154 65.1661 73.1325 67.7557 67.8711 67.8379C70.173 67.3447 71.3239 64.4057 71.3239 59.021V34.0499L67.8711 30.4738C66.3914 31.2958 64.5417 31.933 62.322 32.3851C62.4042 32.7962 62.4453 33.5155 62.4453 34.5431V42.7435C62.4042 43.0723 62.3837 43.4217 62.3837 43.7917L62.4453 59.021L61.5205 58.5894C61.1505 58.4249 60.3695 58.0961 59.1775 57.6028C57.0812 56.6985 55.3342 56.2053 53.9367 56.1231C54.2244 56.082 55.1081 55.5682 56.5879 54.5817V34.4198C56.5879 31.3781 56.1769 28.9323 55.3548 27.0826C54.9848 26.2605 54.5121 25.7467 53.9367 25.5412C57.9649 25.6645 60.6367 27.5759 61.9521 31.2753C64.0895 30.2888 65.7337 29.2817 66.8846 28.2541L71.3239 24.3081L77.3047 31.337V59.021Z" fill="black"/>
<path d="M104.855 66.7281C104.855 69.8109 104.217 72.4827 102.943 74.7435C100.724 78.6485 97.2296 81.4847 92.4615 83.2522C88.351 84.773 84.8571 85.5335 81.9798 85.5335H80.1301C88.9676 83.2727 94.64 78.7718 97.1474 72.0306C97.9284 69.9343 98.3189 68.1668 98.3189 66.7281V55.6298C94.9894 55.3832 91.8654 56.5136 88.947 59.021L82.9663 52.6703V31.9535H83.2129L88.947 24.9863H89.6252C91.7216 27.1648 93.7357 28.6035 95.6676 29.3023C96.202 29.6722 97.579 30.1655 99.7987 30.782L104.115 31.9535H104.855V66.7281ZM98.3189 54.0267V31.9535C95.7704 31.2547 93.859 30.7409 92.5848 30.4121L89.6252 34.0499V50.4506L93.5713 54.9516C95.01 54.5817 96.5925 54.2734 98.3189 54.0267Z" fill="black"/>
<path d="M132.295 46.7512C131.02 47.6144 129.232 48.7037 126.93 50.019C123.971 51.7454 121.443 53.4102 119.347 55.0133C121.114 60.9323 124.259 64.2001 128.78 64.8167C127.835 64.7345 126.869 64.5906 125.882 64.3851C116.428 62.371 111.701 56.493 111.701 46.7512V31.9535L112.626 31.8919C113.53 31.8508 115.154 31.3781 117.497 30.4738C120.456 29.3639 122.84 28.0486 124.649 26.5277L126.499 24.9863L132.295 31.337V46.7512ZM125.882 48.6009V34.0499L122.429 30.0422L118.113 31.5219L118.237 48.6009C118.237 49.9163 118.463 51.396 118.915 53.0402C122.162 50.8206 124.485 49.3408 125.882 48.6009Z" fill="black"/>
<path d="M159.855 49.6491L159.115 50.0807C155.086 52.4237 152.127 54.4378 150.236 56.1231L146.968 59.021L137.966 52.6703V34.9747L138.829 34.4198C138.994 34.2965 139.61 33.7827 140.679 32.8784L149.804 24.9863L159.855 31.337V49.6491ZM153.319 51.4988V34.6048L147.585 30.4121L143.947 32.7551L144.07 49.4025L149.681 53.9034C150.503 53.3691 151.716 52.5675 153.319 51.4988Z" fill="black"/>
<path d="M186.555 59.021C186.555 59.432 186.493 59.7814 186.37 60.0691C185.465 65.1661 182.383 67.7557 177.121 67.8379C179.423 67.3447 180.574 64.4057 180.574 59.021V34.0499L177.121 30.4738C175.641 31.2958 173.792 31.933 171.572 32.3851C171.654 32.7962 171.695 33.5155 171.695 34.5431V42.7435C171.654 43.0723 171.634 43.4217 171.634 43.7917L171.695 59.021L170.77 58.5894C170.401 58.4249 169.62 58.0961 168.428 57.6028C166.331 56.6985 164.584 56.2053 163.187 56.1231C163.474 56.082 164.358 55.5682 165.838 54.5817V34.4198C165.838 31.3781 165.427 28.9323 164.605 27.0826C164.235 26.2605 163.762 25.7467 163.187 25.5412C167.215 25.6645 169.887 27.5759 171.202 31.2753C173.34 30.2888 174.984 29.2817 176.135 28.2541L180.574 24.3081L186.555 31.337V59.021Z" fill="black"/>
<path d="M28.5271 94.8263C28.5271 95.0445 28.5664 95.2278 28.645 95.3762C28.7322 95.5158 28.8631 95.6423 29.0377 95.7558C29.221 95.8692 29.4479 95.9783 29.7184 96.0831C29.9977 96.1791 30.3293 96.2925 30.7133 96.4234C31.0362 96.5281 31.3548 96.6503 31.6689 96.79C31.9831 96.9209 32.2624 97.0867 32.5068 97.2874C32.7598 97.4794 32.9606 97.7238 33.1089 98.0205C33.2573 98.3085 33.3315 98.662 33.3315 99.0809C33.3315 99.5259 33.2442 99.9056 33.0697 100.22C32.8951 100.534 32.6638 100.791 32.3759 100.992C32.0879 101.184 31.7562 101.324 31.3809 101.411C31.0057 101.498 30.6173 101.542 30.2159 101.542C29.6486 101.542 29.1206 101.472 28.6319 101.332C28.1431 101.193 27.7199 101.023 27.3621 100.822L27.637 99.8663C27.8028 99.9798 27.9686 100.089 28.1344 100.194C28.3002 100.29 28.4791 100.372 28.6711 100.442C28.8719 100.512 29.0901 100.569 29.3257 100.612C29.5613 100.656 29.8319 100.678 30.1373 100.678C30.53 100.678 30.866 100.643 31.1453 100.573C31.4246 100.503 31.6515 100.407 31.826 100.285C32.0006 100.154 32.1271 100.002 32.2057 99.827C32.2842 99.6525 32.3235 99.4649 32.3235 99.2641C32.3235 98.9674 32.2537 98.7187 32.114 98.518C31.9744 98.3085 31.7911 98.1296 31.5642 97.9812C31.346 97.8329 31.1017 97.7107 30.8311 97.6147C30.5693 97.51 30.3075 97.414 30.0457 97.3267C29.6704 97.2045 29.33 97.0736 29.0246 96.934C28.7191 96.7943 28.4573 96.6285 28.2391 96.4365C28.0297 96.2445 27.8639 96.022 27.7417 95.7689C27.6282 95.5158 27.5715 95.2147 27.5715 94.8656C27.5715 94.4729 27.6413 94.1413 27.781 93.8707C27.9293 93.5914 28.1257 93.3645 28.3701 93.19C28.6231 93.0154 28.9199 92.8889 29.2602 92.8104C29.6006 92.7231 29.9671 92.6794 30.3599 92.6794C30.8311 92.6794 31.2849 92.7274 31.7213 92.8234C32.1577 92.9194 32.5286 93.0373 32.834 93.1769L32.5591 94.1849C32.4195 94.0627 32.2537 93.9623 32.0617 93.8838C31.8784 93.7965 31.682 93.7311 31.4726 93.6874C31.2719 93.6351 31.0711 93.6002 30.8704 93.5827C30.6697 93.5565 30.482 93.5434 30.3075 93.5434C29.7577 93.5434 29.3213 93.6482 28.9984 93.8576C28.6842 94.0583 28.5271 94.3813 28.5271 94.8263Z" fill="black"/>
<path d="M41.4449 100.154L44.3773 92.7449H45.634V101.385H44.6522V94.8525L42.0078 101.385H40.8297L38.1722 94.8394V101.385H37.1904V92.7449H38.5126L41.4449 100.154Z" fill="black"/>
<path d="M57.3997 101.385H56.287L55.0172 98.4787H51.1554L50.0034 101.385H48.9561L52.4121 92.7449H53.6034L57.3997 101.385ZM51.5219 97.5623H54.6113L52.9881 93.8445L51.5219 97.5623Z" fill="black"/>
<path d="M60.5494 92.7449C60.8548 92.7274 61.1777 92.7144 61.5181 92.7056C61.8672 92.6882 62.1945 92.6794 62.4999 92.6794C62.9712 92.6794 63.3988 92.7362 63.7828 92.8496C64.1668 92.9544 64.4941 93.1114 64.7646 93.3209C65.0439 93.5303 65.2577 93.7922 65.4061 94.1063C65.5632 94.4118 65.6417 94.7652 65.6417 95.1667C65.6417 95.7252 65.4846 96.2227 65.1704 96.6591C64.8563 97.0954 64.3719 97.4009 63.7174 97.5754L67.0293 101.385H65.8119L62.5785 97.6932C62.1945 97.6932 61.8454 97.6801 61.5312 97.654V101.385H60.5494V92.7449ZM62.5785 93.5434C62.3952 93.5434 62.2119 93.5478 62.0286 93.5565C61.8541 93.5565 61.6883 93.5609 61.5312 93.5696V96.8031C61.6883 96.8205 61.8541 96.8292 62.0286 96.8292C62.2119 96.8292 62.4039 96.8292 62.6046 96.8292C63.2504 96.8292 63.7348 96.6809 64.0577 96.3841C64.3894 96.0787 64.5552 95.638 64.5552 95.062C64.5552 94.6082 64.4068 94.2416 64.1101 93.9623C63.8221 93.6831 63.3115 93.5434 62.5785 93.5434Z" fill="black"/>
<path d="M75.463 93.6613H72.7008V101.385H71.719V93.6613H68.9569V92.7449H75.463V93.6613Z" fill="black"/>
<path d="M89.8635 94.1849C89.5843 94.0016 89.2395 93.8489 88.8294 93.7267C88.4192 93.6045 87.9523 93.5434 87.4286 93.5434C86.8439 93.5434 86.3508 93.6307 85.9494 93.8053C85.5479 93.9711 85.2207 94.2067 84.9676 94.5122C84.7232 94.8176 84.5443 95.1885 84.4308 95.6249C84.3261 96.0525 84.2737 96.5281 84.2737 97.0518C84.2737 98.2474 84.5356 99.1507 85.0592 99.7616C85.5828 100.372 86.3639 100.678 87.4025 100.678C87.9523 100.678 88.4585 100.599 88.921 100.442C89.3835 100.285 89.7544 100.093 90.0337 99.8663L90.2955 100.743C89.9464 100.953 89.5232 101.14 89.0257 101.306C88.537 101.463 87.9828 101.542 87.3632 101.542C86.6476 101.542 86.0279 101.424 85.5043 101.188C84.9807 100.953 84.5443 100.634 84.1952 100.233C83.8548 99.8314 83.6018 99.3689 83.4359 98.8452C83.2701 98.3129 83.1872 97.75 83.1872 97.1565C83.1872 96.5369 83.2788 95.9565 83.4621 95.4154C83.6454 94.8743 83.9159 94.4031 84.2737 94.0016C84.6403 93.5914 85.0897 93.2685 85.6221 93.0329C86.1632 92.7973 86.7916 92.6794 87.5072 92.6794C87.9785 92.6794 88.4497 92.7318 88.921 92.8365C89.3923 92.9325 89.7981 93.0678 90.1384 93.2423L89.8635 94.1849Z" fill="black"/>
<path d="M101.313 101.385H100.2L98.9303 98.4787H95.0685L93.9165 101.385H92.8692L96.3252 92.7449H97.5165L101.313 101.385ZM95.435 97.5623H98.5245L96.9012 93.8445L95.435 97.5623Z" fill="black"/>
<path d="M108.717 100.154L111.649 92.7449H112.906V101.385H111.924V94.8525L109.28 101.385H108.102L105.444 94.8394V101.385H104.462V92.7449H105.785L108.717 100.154Z" fill="black"/>
<path d="M117.459 92.7449H117.511C117.79 92.7274 118.1 92.7144 118.441 92.7056C118.781 92.6882 119.104 92.6794 119.409 92.6794C119.881 92.6794 120.308 92.7405 120.692 92.8627C121.076 92.9762 121.403 93.1507 121.674 93.3863C121.953 93.622 122.167 93.9143 122.315 94.2634C122.472 94.6038 122.551 95.0009 122.551 95.4547C122.551 95.8212 122.49 96.166 122.368 96.4889C122.246 96.8118 122.062 97.0954 121.818 97.3398C121.574 97.5841 121.259 97.7805 120.875 97.9289C120.5 98.0685 120.059 98.1383 119.553 98.1383C119.134 98.1383 118.763 98.1252 118.441 98.099V101.385H117.459V92.7449ZM119.488 93.5434C119.305 93.5434 119.121 93.5478 118.938 93.5565C118.763 93.5565 118.598 93.5609 118.441 93.5696V97.2351C118.755 97.2612 119.113 97.2743 119.514 97.2743C120.16 97.2743 120.644 97.1129 120.967 96.79C121.299 96.4583 121.464 95.9783 121.464 95.35C121.464 95.0794 121.43 94.8351 121.36 94.6169C121.29 94.39 121.177 94.198 121.019 94.0409C120.871 93.8838 120.67 93.7616 120.417 93.6743C120.164 93.5871 119.854 93.5434 119.488 93.5434Z" fill="black"/>
<path d="M133.117 101.385H132.004L130.734 98.4787H126.873L125.721 101.385H124.673L128.129 92.7449H129.321L133.117 101.385ZM127.239 97.5623H130.329L128.705 93.8445L127.239 97.5623Z" fill="black"/>
<path d="M137.248 101.385H136.267V92.7449H137.248V101.385Z" fill="black"/>
<path d="M148.46 100.665C148.067 100.927 147.618 101.14 147.111 101.306C146.614 101.463 146.055 101.542 145.436 101.542C144.72 101.542 144.101 101.424 143.577 101.188C143.053 100.953 142.617 100.634 142.268 100.233C141.928 99.8314 141.674 99.3689 141.509 98.8452C141.343 98.3129 141.26 97.75 141.26 97.1565C141.26 96.5369 141.352 95.9565 141.535 95.4154C141.718 94.8743 141.989 94.4031 142.346 94.0016C142.713 93.5914 143.162 93.2685 143.695 93.0329C144.236 92.7973 144.864 92.6794 145.58 92.6794C146.086 92.6794 146.579 92.7318 147.059 92.8365C147.539 92.9325 147.967 93.0678 148.342 93.2423L148.067 94.1849C147.788 94.0016 147.426 93.8489 146.981 93.7267C146.544 93.6045 146.051 93.5434 145.501 93.5434C144.917 93.5434 144.424 93.6307 144.022 93.8053C143.621 93.9711 143.293 94.2067 143.04 94.5122C142.796 94.8176 142.617 95.1885 142.504 95.6249C142.399 96.0525 142.346 96.5281 142.346 97.0518C142.346 98.2474 142.608 99.1507 143.132 99.7616C143.656 100.372 144.437 100.678 145.475 100.678C145.859 100.678 146.217 100.639 146.549 100.56C146.889 100.482 147.199 100.381 147.478 100.259V97.8241H148.46V100.665Z" fill="black"/>
<path d="M153.551 94.3158V101.385H152.569V92.7449H153.76L158.211 99.827V92.7449H159.193V101.385H158.001L153.551 94.3158Z" fill="black"/>
<path d="M10.2961 95.6785L12.9143 93.0603L15.5325 95.6785L12.9143 100.915L10.2961 95.6785Z" fill="#F03C23"/>
<path d="M171.022 95.6785L173.64 93.0603L176.259 95.6785L173.64 100.915L171.022 95.6785Z" fill="#F03C23"/>
</svg>
