<svg width="99" height="114" viewBox="0 0 99 114" fill="none" xmlns="http://www.w3.org/2000/svg">
<mask id="path-1-inside-1_795_282" fill="white">
<path fill-rule="evenodd" clip-rule="evenodd" d="M49.5364 0L13.7301 10.7626C13.7301 10.7626 13.9371 19.2484 10.0046 24.8366C6.07218 30.4248 0.690918 31.0457 0.690918 31.0457V57.9521C0.690918 57.9521 2.09156 70.0064 14.972 88.5839C27.8524 107.161 49.5364 113.627 49.5364 113.627C49.5364 113.627 71.2204 107.161 84.1008 88.5839C96.9812 70.0064 98.3818 57.9521 98.3818 57.9521V31.0457C98.3818 31.0457 93.0005 30.4248 89.0681 24.8366C85.1356 19.2484 85.3427 10.7626 85.3427 10.7626L49.5364 0Z"/>
</mask>
<path fill-rule="evenodd" clip-rule="evenodd" d="M49.5364 0L13.7301 10.7626C13.7301 10.7626 13.9371 19.2484 10.0046 24.8366C6.07218 30.4248 0.690918 31.0457 0.690918 31.0457V57.9521C0.690918 57.9521 2.09156 70.0064 14.972 88.5839C27.8524 107.161 49.5364 113.627 49.5364 113.627C49.5364 113.627 71.2204 107.161 84.1008 88.5839C96.9812 70.0064 98.3818 57.9521 98.3818 57.9521V31.0457C98.3818 31.0457 93.0005 30.4248 89.0681 24.8366C85.1356 19.2484 85.3427 10.7626 85.3427 10.7626L49.5364 0Z" fill="#1D1D1D"/>
<path d="M13.7301 10.7626L12.9577 8.19299L10.9978 8.78209L11.0477 10.828L13.7301 10.7626ZM49.5364 0L50.3087 -2.56957L49.5364 -2.80173L48.764 -2.56957L49.5364 0ZM10.0046 24.8366L7.81035 23.2925L7.81035 23.2925L10.0046 24.8366ZM0.690918 31.0457L0.383367 28.3803L-1.99222 28.6544L-1.99222 31.0457H0.690918ZM0.690918 57.9521H-1.99222V58.1074L-1.97429 58.2617L0.690918 57.9521ZM14.972 88.5839L17.177 87.0551L17.177 87.0551L14.972 88.5839ZM49.5364 113.627L48.7696 116.199L49.5364 116.427L50.3031 116.199L49.5364 113.627ZM84.1008 88.5839L81.8958 87.0551L81.8958 87.0551L84.1008 88.5839ZM98.3818 57.9521L101.047 58.2617L101.065 58.1074V57.9521H98.3818ZM98.3818 31.0457H101.065V28.6544L98.6894 28.3803L98.3818 31.0457ZM89.0681 24.8366L91.2624 23.2925L91.2624 23.2925L89.0681 24.8366ZM85.3427 10.7626L88.025 10.828L88.0749 8.78209L86.115 8.19299L85.3427 10.7626ZM14.5024 13.3321L50.3087 2.56957L48.764 -2.56957L12.9577 8.19299L14.5024 13.3321ZM12.1989 26.3807C14.5104 23.0961 15.5271 19.1054 15.9931 16.1174C16.2308 14.5936 16.3355 13.2604 16.3811 12.3034C16.4039 11.8236 16.412 11.4351 16.4143 11.1604C16.4155 11.023 16.4152 10.9138 16.4145 10.8357C16.4141 10.7967 16.4137 10.7654 16.4133 10.7421C16.4131 10.7305 16.4129 10.721 16.4128 10.7134C16.4127 10.7097 16.4126 10.7064 16.4126 10.7037C16.4125 10.7023 16.4125 10.7011 16.4125 10.7C16.4125 10.6995 16.4124 10.6987 16.4124 10.6985C16.4124 10.6978 16.4124 10.6971 13.7301 10.7626C11.0477 10.828 11.0477 10.8274 11.0477 10.8268C11.0477 10.8267 11.0477 10.8262 11.0477 10.8259C11.0477 10.8253 11.0477 10.8248 11.0476 10.8245C11.0476 10.8238 11.0476 10.8237 11.0476 10.824C11.0476 10.8247 11.0477 10.8274 11.0478 10.832C11.0479 10.8412 11.0482 10.8583 11.0484 10.8827C11.0488 10.9317 11.0491 11.0103 11.0482 11.1158C11.0465 11.327 11.0401 11.6451 11.0209 12.0482C10.9824 12.8569 10.8931 13.9944 10.6909 15.2905C10.2773 17.9425 9.43139 20.9889 7.81035 23.2925L12.1989 26.3807ZM0.690918 31.0457C0.998469 33.7112 0.999717 33.7111 1.00098 33.7109C1.00143 33.7109 1.00273 33.7107 1.00363 33.7106C1.00543 33.7104 1.00732 33.7102 1.0093 33.7099C1.01325 33.7095 1.01754 33.7089 1.02216 33.7084C1.03141 33.7072 1.04201 33.7059 1.05393 33.7043C1.07776 33.7012 1.10688 33.6972 1.14107 33.6922C1.20943 33.6822 1.29817 33.6681 1.40555 33.6488C1.62015 33.6101 1.91017 33.5503 2.2614 33.46C2.96262 33.2797 3.91609 32.9756 5.00401 32.4699C7.18758 31.455 9.91587 29.6251 12.1989 26.3807L7.81035 23.2925C6.16095 25.6364 4.23238 26.911 2.7422 27.6036C1.99326 27.9517 1.35563 28.1521 0.924974 28.2628C0.710258 28.318 0.549148 28.3504 0.454099 28.3675C0.406652 28.3761 0.375946 28.3808 0.363559 28.3826C0.357374 28.3835 0.355796 28.3837 0.359023 28.3832C0.360637 28.383 0.363456 28.3827 0.367504 28.3822C0.369528 28.3819 0.37186 28.3816 0.374502 28.3813C0.375824 28.3812 0.377223 28.381 0.3787 28.3808C0.379438 28.3807 0.380606 28.3806 0.380975 28.3806C0.38216 28.3804 0.383367 28.3803 0.690918 31.0457ZM3.37406 57.9521V31.0457H-1.99222V57.9521H3.37406ZM17.177 87.0551C10.8672 77.9545 7.40203 70.4995 5.51985 65.3762C4.57839 62.8135 4.03184 60.831 3.72351 59.5141C3.56932 58.8556 3.47465 58.3633 3.41994 58.0478C3.39258 57.8901 3.37521 57.7765 3.36539 57.7085C3.36048 57.6745 3.35746 57.6519 3.35601 57.6408C3.35529 57.6353 3.35497 57.6326 3.355 57.6329C3.35501 57.633 3.35512 57.6339 3.35531 57.6354C3.3554 57.6362 3.35552 57.6372 3.35566 57.6384C3.35572 57.6389 3.35584 57.6399 3.35588 57.6402C3.356 57.6413 3.35613 57.6424 0.690918 57.9521C-1.97429 58.2617 -1.97415 58.2629 -1.97401 58.2642C-1.97395 58.2646 -1.9738 58.2659 -1.97369 58.2669C-1.97347 58.2688 -1.97322 58.2708 -1.97295 58.2731C-1.97241 58.2776 -1.97177 58.2829 -1.97103 58.2889C-1.96956 58.3009 -1.96768 58.3158 -1.96536 58.3336C-1.96071 58.3693 -1.9543 58.4166 -1.94581 58.4754C-1.92882 58.5931 -1.90352 58.7566 -1.86742 58.9648C-1.79522 59.3811 -1.67984 59.9757 -1.50146 60.7375C-1.14465 62.2614 -0.536017 64.4536 0.482729 67.2267C2.52097 72.7748 6.1963 80.6358 12.767 90.1127L17.177 87.0551ZM49.5364 113.627C50.3031 111.056 50.3038 111.056 50.3044 111.057C50.3045 111.057 50.3051 111.057 50.3052 111.057C50.3056 111.057 50.3057 111.057 50.3054 111.057C50.3049 111.057 50.3031 111.056 50.3 111.055C50.2938 111.053 50.2824 111.05 50.266 111.045C50.2333 111.035 50.1804 111.018 50.1084 110.995C49.9644 110.949 49.7438 110.877 49.454 110.777C48.8743 110.577 48.0187 110.267 46.9462 109.837C44.7993 108.975 41.7933 107.635 38.3956 105.731C31.5791 101.913 23.3075 95.8972 17.177 87.0551L12.767 90.1127C19.5168 99.848 28.5274 106.354 35.773 110.413C39.4064 112.448 42.6264 113.886 44.9478 114.817C46.1094 115.283 47.0485 115.624 47.7049 115.85C48.0332 115.963 48.2911 116.048 48.471 116.105C48.5609 116.134 48.6314 116.156 48.6815 116.172C48.7065 116.18 48.7265 116.186 48.7412 116.19C48.7486 116.192 48.7546 116.194 48.7594 116.196C48.7617 116.196 48.7638 116.197 48.7655 116.197C48.7663 116.198 48.7674 116.198 48.7678 116.198C48.7688 116.198 48.7696 116.199 49.5364 113.627ZM49.5364 113.627C50.3031 116.199 50.304 116.198 50.3049 116.198C50.3053 116.198 50.3064 116.198 50.3072 116.197C50.3089 116.197 50.311 116.196 50.3134 116.196C50.3181 116.194 50.3242 116.192 50.3315 116.19C50.3462 116.186 50.3662 116.18 50.3912 116.172C50.4413 116.156 50.5118 116.134 50.6017 116.105C50.7816 116.048 51.0395 115.963 51.3678 115.85C52.0243 115.624 52.9634 115.283 54.1249 114.817C56.4463 113.886 59.6663 112.448 63.2997 110.413C70.5453 106.354 79.5559 99.848 86.3058 90.1127L81.8958 87.0551C75.7652 95.8972 67.4936 101.913 60.6771 105.731C57.2794 107.635 54.2735 108.975 52.1265 109.837C51.054 110.267 50.1984 110.577 49.6187 110.777C49.329 110.877 49.1084 110.949 48.9643 110.995C48.8923 111.018 48.8395 111.035 48.8067 111.045C48.7903 111.05 48.779 111.053 48.7727 111.055C48.7696 111.056 48.7678 111.057 48.7673 111.057C48.767 111.057 48.7671 111.057 48.7675 111.057C48.7677 111.057 48.7682 111.057 48.7683 111.057C48.7689 111.056 48.7696 111.056 49.5364 113.627ZM86.3058 90.1127C92.8764 80.6358 96.5517 72.7748 98.59 67.2267C99.6087 64.4536 100.217 62.2614 100.574 60.7375C100.753 59.9757 100.868 59.3811 100.94 58.9648C100.976 58.7566 101.002 58.5931 101.019 58.4754C101.027 58.4166 101.033 58.3693 101.038 58.3336C101.04 58.3158 101.042 58.3009 101.044 58.2889C101.044 58.2829 101.045 58.2776 101.046 58.2731C101.046 58.2708 101.046 58.2688 101.046 58.2669C101.047 58.2659 101.047 58.2646 101.047 58.2642C101.047 58.2629 101.047 58.2617 98.3818 57.9521C95.7166 57.6424 95.7167 57.6413 95.7168 57.6402C95.7169 57.6399 95.717 57.6389 95.7171 57.6384C95.7172 57.6372 95.7173 57.6362 95.7174 57.6354C95.7176 57.6338 95.7177 57.633 95.7177 57.6329C95.7178 57.6326 95.7174 57.6353 95.7167 57.6408C95.7153 57.6519 95.7122 57.6745 95.7073 57.7085C95.6975 57.7765 95.6801 57.8901 95.6528 58.0478C95.5981 58.3633 95.5034 58.8556 95.3492 59.5141C95.0409 60.831 94.4943 62.8135 93.5529 65.3762C91.6707 70.4995 88.2055 77.9545 81.8958 87.0551L86.3058 90.1127ZM101.065 57.9521V31.0457H95.6987V57.9521H101.065ZM98.3818 31.0457C98.6894 28.3803 98.6906 28.3804 98.6917 28.3806C98.6921 28.3806 98.6933 28.3807 98.694 28.3808C98.6955 28.381 98.6969 28.3812 98.6982 28.3813C98.7009 28.3816 98.7032 28.3819 98.7052 28.3822C98.7093 28.3827 98.7121 28.383 98.7137 28.3832C98.7169 28.3837 98.7153 28.3835 98.7092 28.3826C98.6968 28.3808 98.6661 28.3761 98.6186 28.3675C98.5236 28.3504 98.3625 28.318 98.1477 28.2628C97.7171 28.1521 97.0795 27.9517 96.3305 27.6036C94.8403 26.911 92.9118 25.6364 91.2624 23.2925L86.8738 26.3807C89.1569 29.6251 91.8851 31.455 94.0687 32.4699C95.1566 32.9756 96.1101 33.2797 96.8113 33.46C97.1625 33.5503 97.4526 33.6101 97.6672 33.6488C97.7746 33.6681 97.8633 33.6822 97.9317 33.6922C97.9658 33.6972 97.995 33.7012 98.0188 33.7043C98.0307 33.7059 98.0413 33.7072 98.0506 33.7084C98.0552 33.7089 98.0595 33.7095 98.0634 33.7099C98.0654 33.7102 98.0673 33.7104 98.0691 33.7106C98.07 33.7107 98.0713 33.7109 98.0717 33.7109C98.073 33.7111 98.0743 33.7112 98.3818 31.0457ZM91.2624 23.2925C89.6413 20.9889 88.7954 17.9425 88.3818 15.2905C88.1796 13.9944 88.0904 12.8569 88.0519 12.0482C88.0327 11.6451 88.0262 11.327 88.0245 11.1158C88.0236 11.0103 88.0239 10.9317 88.0243 10.8827C88.0245 10.8583 88.0248 10.8412 88.0249 10.832C88.025 10.8274 88.0251 10.8247 88.0251 10.824C88.0251 10.8237 88.0251 10.8238 88.0251 10.8245C88.0251 10.8248 88.0251 10.8253 88.025 10.8259C88.025 10.8262 88.025 10.8267 88.025 10.8268C88.025 10.8274 88.025 10.828 85.3427 10.7626C82.6603 10.6971 82.6603 10.6978 82.6603 10.6985C82.6603 10.6987 82.6603 10.6995 82.6602 10.7C82.6602 10.7011 82.6602 10.7024 82.6602 10.7037C82.6601 10.7064 82.66 10.7097 82.6599 10.7134C82.6598 10.721 82.6596 10.7305 82.6594 10.7421C82.659 10.7654 82.6586 10.7967 82.6582 10.8357C82.6576 10.9138 82.6572 11.023 82.6584 11.1604C82.6607 11.4351 82.6688 11.8236 82.6916 12.3034C82.7372 13.2604 82.8419 14.5936 83.0796 16.1174C83.5456 19.1054 84.5624 23.0961 86.8738 26.3807L91.2624 23.2925ZM86.115 8.19299L50.3087 -2.56957L48.764 2.56957L84.5703 13.3321L86.115 8.19299Z" fill="white" mask="url(#path-1-inside-1_795_282)"/>
<mask id="path-3-inside-2_795_282" fill="white">
<path fill-rule="evenodd" clip-rule="evenodd" d="M8.21606 38.2883V57.7769C8.21606 57.7769 9.40093 67.9742 20.297 83.6897C31.193 99.4051 49.5364 104.875 49.5364 104.875C49.5364 104.875 49.852 104.781 50.425 104.582L50.4804 104.563L50.6097 104.517C54.6871 103.078 69.4558 97.132 78.7759 83.6897C89.6719 67.9742 90.8568 57.7769 90.8568 57.7769V38.2486C83.2017 34.1877 77.8847 26.3046 77.4495 17.143L49.5364 8.75293L21.6563 17.1331C21.2317 26.3212 15.8972 34.2274 8.21606 38.2883Z"/>
</mask>
<path d="M8.21606 38.2883L7.71444 37.3395L7.14281 37.6417V38.2883H8.21606ZM8.21606 57.7769H7.14281V57.8391L7.14998 57.9008L8.21606 57.7769ZM20.297 83.6897L19.415 84.3012L19.415 84.3012L20.297 83.6897ZM49.5364 104.875L49.2297 105.904L49.5364 105.995L49.8431 105.904L49.5364 104.875ZM50.425 104.582L50.7771 105.596L50.778 105.595L50.425 104.582ZM50.4804 104.563L50.8334 105.576L50.8358 105.575L50.4804 104.563ZM50.6097 104.517L50.9651 105.53L50.9669 105.529L50.6097 104.517ZM78.7759 83.6897L79.6579 84.3012L79.6579 84.3012L78.7759 83.6897ZM90.8568 57.7769L91.9229 57.9008L91.93 57.8391V57.7769H90.8568ZM90.8568 38.2486H91.93V37.6031L91.3597 37.3005L90.8568 38.2486ZM77.4495 17.143L78.5215 17.092L78.4855 16.3337L77.7584 16.1151L77.4495 17.143ZM49.5364 8.75293L49.8454 7.7251L49.5364 7.63224L49.2275 7.7251L49.5364 8.75293ZM21.6563 17.1331L21.3474 16.1052L20.6193 16.3241L20.5842 17.0835L21.6563 17.1331ZM7.14281 38.2883V57.7769H9.28932V38.2883H7.14281ZM8.21606 57.7769C7.14998 57.9008 7.15004 57.9013 7.1501 57.9019C7.15013 57.9021 7.1502 57.9027 7.15025 57.9031C7.15036 57.904 7.15049 57.9051 7.15063 57.9063C7.15093 57.9088 7.1513 57.9119 7.15176 57.9156C7.15267 57.923 7.15391 57.9329 7.15552 57.9452C7.15874 57.9699 7.16341 58.0045 7.16979 58.0487C7.18256 58.1371 7.2022 58.2644 7.23079 58.4292C7.28797 58.7589 7.38095 59.2391 7.52646 59.8605C7.81748 61.1035 8.31851 62.9112 9.16308 65.2101C10.8525 69.8088 13.9148 76.3682 19.415 84.3012L21.179 83.0781C15.7831 75.2957 12.8049 68.8987 11.1779 64.4699C10.3643 62.2551 9.88808 60.5313 9.61644 59.3711C9.48062 58.791 9.39591 58.3518 9.34573 58.0624C9.32064 57.9177 9.30418 57.8105 9.29427 57.7419C9.28932 57.7076 9.286 57.683 9.28407 57.6681C9.2831 57.6607 9.28248 57.6557 9.28217 57.6532C9.28202 57.6519 9.28194 57.6513 9.28194 57.6513C9.28194 57.6513 9.28195 57.6514 9.28199 57.6517C9.28201 57.6519 9.28205 57.6522 9.28205 57.6523C9.2821 57.6527 9.28215 57.6531 8.21606 57.7769ZM19.415 84.3012C24.9869 92.3375 32.4445 97.732 38.4782 101.112C41.4993 102.804 44.1755 103.999 46.1003 104.771C47.0631 105.157 47.8389 105.438 48.3771 105.624C48.6463 105.717 48.8561 105.786 49.0003 105.832C49.0724 105.855 49.1281 105.872 49.1666 105.884C49.1858 105.89 49.2008 105.895 49.2113 105.898C49.2166 105.9 49.2208 105.901 49.2239 105.902C49.2254 105.902 49.2267 105.903 49.2276 105.903C49.2281 105.903 49.2286 105.903 49.2289 105.903C49.2293 105.903 49.2297 105.904 49.5364 104.875C49.8431 103.847 49.8434 103.847 49.8435 103.847C49.8435 103.847 49.8436 103.847 49.8435 103.847C49.8434 103.847 49.843 103.846 49.8423 103.846C49.8409 103.846 49.8384 103.845 49.8348 103.844C49.8277 103.842 49.8162 103.838 49.8004 103.833C49.7688 103.824 49.7202 103.808 49.6552 103.788C49.5254 103.746 49.3305 103.682 49.0768 103.595C48.5693 103.42 47.8269 103.151 46.8997 102.779C45.0446 102.034 42.454 100.879 39.5273 99.2393C33.6652 95.9555 26.5032 90.7572 21.179 83.0781L19.415 84.3012ZM49.5364 104.875C49.8431 105.904 49.8431 105.904 49.8432 105.904C49.8432 105.904 49.8432 105.903 49.8433 105.903C49.8433 105.903 49.8434 105.903 49.8435 105.903C49.8436 105.903 49.8438 105.903 49.844 105.903C49.8444 105.903 49.8448 105.903 49.8453 105.903C49.8464 105.903 49.8478 105.902 49.8494 105.902C49.8528 105.901 49.8573 105.899 49.8631 105.898C49.8746 105.894 49.891 105.889 49.9121 105.882C49.9543 105.869 50.0153 105.85 50.0944 105.825C50.2525 105.774 50.4825 105.698 50.7771 105.596L50.0729 103.568C49.7945 103.665 49.5803 103.735 49.4373 103.781C49.3658 103.804 49.3122 103.821 49.2773 103.832C49.2598 103.837 49.2471 103.841 49.2391 103.844C49.2351 103.845 49.2324 103.846 49.2308 103.846C49.23 103.846 49.2295 103.847 49.2294 103.847C49.2293 103.847 49.2293 103.847 49.2293 103.847C49.2294 103.847 49.2294 103.847 49.2295 103.847C49.2295 103.847 49.2296 103.847 49.2296 103.847C49.2296 103.847 49.2297 103.847 49.2297 103.847C49.2297 103.847 49.2298 103.847 49.5364 104.875ZM50.778 105.595L50.8334 105.576L50.1274 103.549L50.072 103.568L50.778 105.595ZM50.8358 105.575L50.9651 105.53L50.2543 103.505L50.125 103.55L50.8358 105.575ZM50.9669 105.529C55.1038 104.069 70.1404 98.0283 79.6579 84.3012L77.8939 83.0781C68.7713 96.2357 54.2703 102.087 50.2525 103.505L50.9669 105.529ZM79.6579 84.3012C85.1581 76.3682 88.2203 69.8088 89.9098 65.2101C90.7543 62.9112 91.2554 61.1035 91.5464 59.8605C91.6919 59.2391 91.7849 58.7589 91.8421 58.4292C91.8706 58.2644 91.8903 58.1371 91.9031 58.0487C91.9094 58.0045 91.9141 57.9699 91.9173 57.9452C91.9189 57.9329 91.9202 57.923 91.9211 57.9156C91.9215 57.9119 91.9219 57.9088 91.9222 57.9063C91.9224 57.9051 91.9225 57.904 91.9226 57.9031C91.9226 57.9027 91.9227 57.9021 91.9227 57.9019C91.9228 57.9013 91.9229 57.9008 90.8568 57.7769C89.7907 57.6531 89.7907 57.6527 89.7908 57.6523C89.7908 57.6522 89.7908 57.6519 89.7909 57.6517C89.7909 57.6514 89.7909 57.6513 89.7909 57.6513C89.7909 57.6513 89.7908 57.6519 89.7907 57.6532C89.7904 57.6557 89.7897 57.6607 89.7888 57.6681C89.7868 57.683 89.7835 57.7076 89.7786 57.7419C89.7687 57.8105 89.7522 57.9177 89.7271 58.0624C89.6769 58.3518 89.5922 58.791 89.4564 59.3711C89.1848 60.5313 88.7086 62.2551 87.8949 64.4699C86.2679 68.8987 83.2897 75.2957 77.8939 83.0781L79.6579 84.3012ZM91.93 57.7769V38.2486H89.7835V57.7769H91.93ZM91.3597 37.3005C84.0274 33.4108 78.9382 25.8616 78.5215 17.092L76.3774 17.1939C76.8313 26.7475 82.376 34.9646 90.3538 39.1967L91.3597 37.3005ZM77.7584 16.1151L49.8454 7.7251L49.2275 9.78076L77.1405 18.1708L77.7584 16.1151ZM49.2275 7.7251L21.3474 16.1052L21.9653 18.1609L49.8454 9.78076L49.2275 7.7251ZM20.5842 17.0835C20.1777 25.8786 15.0717 33.4498 7.71444 37.3395L8.71769 39.2371C16.7226 35.005 22.2856 26.7639 22.7284 17.1826L20.5842 17.0835Z" fill="white" mask="url(#path-3-inside-2_795_282)"/>
<circle cx="49.5363" cy="9.58123" r="2.11737" fill="white"/>
<circle cx="49.5367" cy="103.975" r="2.11968" fill="white"/>
<circle cx="9.13445" cy="38.4958" r="2.1198" fill="white"/>
<circle cx="89.624" cy="38.8141" r="2.1198" fill="white"/>
<path d="M11.6667 78.6304H87.5003L94.2291 68.216L98.4918 56.8139H0.968262L5.1658 68.0625L11.6667 78.6304Z" fill="white"/>
<path d="M45.5361 88.2427L49.5361 84.2427L53.5361 88.2427L49.5361 96.2427L45.5361 88.2427Z" fill="#F03C23"/>
</svg>
