<svg width="99" height="114" viewBox="0 0 99 114" fill="none" xmlns="http://www.w3.org/2000/svg">
<mask id="path-1-inside-1_843_163" fill="white">
<path fill-rule="evenodd" clip-rule="evenodd" d="M49.3982 0.246582L13.5919 11.0091C13.5919 11.0091 13.7989 19.4949 9.86647 25.0832C5.93401 30.6714 0.55275 31.2923 0.55275 31.2923V49.8028C0.55275 55.3953 0.858334 61.0203 2.76456 66.2779C4.7028 71.6239 8.28413 79.3838 14.8338 88.8305C27.7142 107.408 49.3982 113.874 49.3982 113.874C49.3982 113.874 71.0822 107.408 83.9626 88.8305C90.5123 79.3838 94.0936 71.6239 96.0318 66.2779C97.938 61.0203 98.2436 55.3953 98.2436 49.8028V31.2923C98.2436 31.2923 92.8624 30.6714 88.9299 25.0832C84.9975 19.4949 85.2045 11.0091 85.2045 11.0091L49.3982 0.246582Z"/>
</mask>
<path d="M13.5919 11.0091L12.8195 8.43957L10.8596 9.02867L10.9095 11.0746L13.5919 11.0091ZM49.3982 0.246582L50.1705 -2.32299L49.3982 -2.55514L48.6258 -2.32299L49.3982 0.246582ZM0.552734 31.2923L0.245182 28.6269L-2.13041 28.901V31.2923H0.552734ZM2.76455 66.2779L5.28701 65.3634L5.28701 65.3634L2.76455 66.2779ZM14.8338 88.8305L12.6288 90.3593L14.8338 88.8305ZM49.3982 113.874L48.6314 116.445L49.3982 116.674L50.1649 116.445L49.3982 113.874ZM83.9626 88.8305L81.7576 87.3017L83.9626 88.8305ZM96.0318 66.2779L98.5543 67.1925V67.1925L96.0318 66.2779ZM98.2436 31.2923H100.927V28.901L98.5512 28.6269L98.2436 31.2923ZM88.9299 25.0832L91.1242 23.539V23.539L88.9299 25.0832ZM85.2045 11.0091L87.8868 11.0746L87.9367 9.02867L85.9768 8.43957L85.2045 11.0091ZM14.3642 13.5787L50.1705 2.81616L48.6258 -2.32299L12.8195 8.43957L14.3642 13.5787ZM12.0607 26.6273C14.3722 23.3426 15.3889 19.352 15.8549 16.364C16.0926 14.8402 16.1973 13.507 16.2429 12.55C16.2657 12.0702 16.2739 11.6816 16.2761 11.407C16.2773 11.2696 16.277 11.1604 16.2763 11.0823C16.2759 11.0433 16.2755 11.0119 16.2751 10.9887C16.2749 10.9771 16.2747 10.9675 16.2746 10.96C16.2745 10.9563 16.2744 10.953 16.2744 10.9503C16.2744 10.9489 16.2743 10.9477 16.2743 10.9466C16.2743 10.9461 16.2743 10.9453 16.2743 10.9451C16.2742 10.9444 16.2742 10.9437 13.5919 11.0091C10.9095 11.0746 10.9095 11.074 10.9095 11.0734C10.9095 11.0733 10.9095 11.0727 10.9095 11.0725C10.9095 11.0719 10.9095 11.0714 10.9095 11.0711C10.9094 11.0704 10.9094 11.0703 10.9094 11.0706C10.9095 11.0713 10.9095 11.074 10.9096 11.0786C10.9097 11.0878 10.91 11.1048 10.9102 11.1293C10.9106 11.1782 10.9109 11.2568 10.9101 11.3624C10.9083 11.5736 10.9019 11.8917 10.8827 12.2948C10.8442 13.1034 10.7549 14.241 10.5528 15.5371C10.1391 18.1891 9.2932 21.2355 7.67217 23.539L12.0607 26.6273ZM0.552734 31.2923C0.860287 33.9578 0.861534 33.9576 0.862802 33.9575C0.863252 33.9574 0.864543 33.9573 0.865445 33.9572C0.86725 33.957 0.86914 33.9567 0.871115 33.9565C0.875065 33.956 0.879355 33.9555 0.88398 33.955C0.893231 33.9538 0.903828 33.9525 0.915745 33.9509C0.939575 33.9478 0.968694 33.9438 1.00288 33.9388C1.07124 33.9288 1.15999 33.9147 1.26737 33.8954C1.48197 33.8567 1.77199 33.7969 2.12321 33.7066C2.82444 33.5263 3.7779 33.2222 4.86583 32.7165C7.0494 31.7016 9.77769 29.8717 12.0607 26.6273L7.67217 23.539C6.02277 25.8829 4.0942 27.1576 2.60402 27.8502C1.85507 28.1983 1.21744 28.3986 0.78679 28.5094C0.572074 28.5646 0.410964 28.597 0.315914 28.6141C0.268468 28.6226 0.237761 28.6273 0.225374 28.6292C0.21919 28.6301 0.217612 28.6302 0.220838 28.6298C0.222452 28.6296 0.225271 28.6293 0.229319 28.6288C0.231343 28.6285 0.233675 28.6282 0.236318 28.6279C0.237639 28.6278 0.239038 28.6276 0.240515 28.6274C0.241253 28.6273 0.242422 28.6272 0.24279 28.6271C0.243976 28.627 0.245182 28.6269 0.552734 31.2923ZM3.23587 49.8028V31.2923H-2.13041V49.8028H3.23587ZM5.28701 65.3634C3.54904 60.5698 3.23587 55.3409 3.23587 49.8028H-2.13041C-2.13041 55.4498 -1.83241 61.4707 0.242078 67.1925L5.28701 65.3634ZM17.0388 87.3017C10.6219 78.0465 7.14688 70.4932 5.28701 65.3634L0.242077 67.1925C2.25868 72.7546 5.94639 80.7212 12.6288 90.3593L17.0388 87.3017ZM49.3982 113.874C50.1649 111.303 50.1656 111.303 50.1662 111.303C50.1663 111.303 50.1669 111.303 50.1671 111.303C50.1675 111.304 50.1675 111.304 50.1673 111.303C50.1667 111.303 50.1649 111.303 50.1618 111.302C50.1556 111.3 50.1442 111.296 50.1278 111.291C50.0951 111.281 50.0422 111.265 49.9702 111.242C49.8262 111.196 49.6056 111.123 49.3158 111.023C48.7361 110.823 47.8806 110.514 46.808 110.083C44.6611 109.222 41.6551 107.881 38.2575 105.978C31.4409 102.159 23.1693 96.1438 17.0388 87.3017L12.6288 90.3593C19.3786 100.095 28.3892 106.601 35.6348 110.66C39.2682 112.695 42.4883 114.132 44.8096 115.064C45.9712 115.53 46.9103 115.87 47.5668 116.097C47.8951 116.21 48.1529 116.294 48.3328 116.352C48.4228 116.381 48.4932 116.403 48.5433 116.418C48.5684 116.426 48.5883 116.432 48.603 116.437C48.6104 116.439 48.6164 116.441 48.6212 116.442C48.6236 116.443 48.6256 116.444 48.6273 116.444C48.6282 116.444 48.6292 116.445 48.6296 116.445C48.6306 116.445 48.6314 116.445 49.3982 113.874ZM49.3982 113.874C50.1649 116.445 50.1658 116.445 50.1667 116.445C50.1672 116.445 50.1682 116.444 50.169 116.444C50.1708 116.444 50.1728 116.443 50.1752 116.442C50.1799 116.441 50.186 116.439 50.1933 116.437C50.2081 116.432 50.228 116.426 50.253 116.418C50.3031 116.403 50.3736 116.381 50.4636 116.352C50.6434 116.294 50.9013 116.21 51.2296 116.097C51.8861 115.87 52.8252 115.53 53.9868 115.064C56.3081 114.132 59.5282 112.695 63.1615 110.66C70.4071 106.601 79.4177 100.095 86.1676 90.3593L81.7576 87.3017C75.627 96.1438 67.3554 102.159 60.5389 105.978C57.1412 107.881 54.1353 109.222 51.9884 110.083C50.9158 110.514 50.0602 110.823 49.4805 111.023C49.1908 111.123 48.9702 111.196 48.8261 111.242C48.7541 111.265 48.7013 111.281 48.6685 111.291C48.6521 111.296 48.6408 111.3 48.6346 111.302C48.6315 111.303 48.6296 111.303 48.6291 111.303C48.6288 111.304 48.6289 111.304 48.6293 111.303C48.6295 111.303 48.63 111.303 48.6301 111.303C48.6307 111.303 48.6314 111.303 49.3982 113.874ZM86.1676 90.3593C92.85 80.7212 96.5377 72.7546 98.5543 67.1925L93.5093 65.3634C91.6495 70.4932 88.1745 78.0465 81.7576 87.3017L86.1676 90.3593ZM98.5543 67.1925C100.629 61.4707 100.927 55.4498 100.927 49.8028H95.5605C95.5605 55.3409 95.2473 60.5698 93.5093 65.3634L98.5543 67.1925ZM100.927 49.8028V31.2923H95.5605V49.8028H100.927ZM98.2436 31.2923C98.5512 28.6269 98.5524 28.627 98.5536 28.6271C98.5539 28.6272 98.5551 28.6273 98.5558 28.6274C98.5573 28.6276 98.5587 28.6278 98.56 28.6279C98.5627 28.6282 98.565 28.6285 98.567 28.6288C98.5711 28.6293 98.5739 28.6296 98.5755 28.6298C98.5787 28.6302 98.5772 28.6301 98.571 28.6292C98.5586 28.6273 98.5279 28.6226 98.4804 28.6141C98.3854 28.597 98.2243 28.5646 98.0096 28.5094C97.5789 28.3986 96.9413 28.1983 96.1923 27.8502C94.7022 27.1576 92.7736 25.8829 91.1242 23.539L86.7356 26.6273C89.0187 29.8717 91.747 31.7016 93.9305 32.7165C95.0185 33.2222 95.9719 33.5263 96.6731 33.7066C97.0244 33.7969 97.3144 33.8567 97.529 33.8954C97.6364 33.9147 97.7251 33.9288 97.7935 33.9388C97.8277 33.9438 97.8568 33.9478 97.8806 33.9509C97.8925 33.9525 97.9031 33.9538 97.9124 33.955C97.917 33.9555 97.9213 33.956 97.9252 33.9565C97.9272 33.9567 97.9291 33.957 97.9309 33.9572C97.9318 33.9573 97.9331 33.9574 97.9336 33.9575C97.9348 33.9576 97.9361 33.9578 98.2436 31.2923ZM91.1242 23.539C89.5032 21.2355 88.6572 18.1891 88.2436 15.5371C88.0415 14.241 87.9522 13.1034 87.9137 12.2948C87.8945 11.8917 87.8881 11.5736 87.8863 11.3624C87.8854 11.2568 87.8857 11.1782 87.8861 11.1293C87.8864 11.1048 87.8866 11.0878 87.8868 11.0786C87.8868 11.074 87.8869 11.0713 87.8869 11.0706C87.8869 11.0703 87.8869 11.0704 87.8869 11.0711C87.8869 11.0714 87.8869 11.0719 87.8869 11.0725C87.8869 11.0727 87.8868 11.0733 87.8868 11.0734C87.8868 11.074 87.8868 11.0746 85.2045 11.0091C82.5221 10.9437 82.5221 10.9444 82.5221 10.9451C82.5221 10.9453 82.5221 10.9461 82.5221 10.9466C82.522 10.9477 82.522 10.9489 82.522 10.9503C82.5219 10.953 82.5218 10.9563 82.5218 10.96C82.5216 10.9675 82.5214 10.9771 82.5212 10.9887C82.5208 11.0119 82.5204 11.0433 82.5201 11.0823C82.5194 11.1604 82.5191 11.2696 82.5202 11.407C82.5225 11.6816 82.5306 12.0702 82.5535 12.55C82.599 13.507 82.7038 14.8402 82.9414 16.364C83.4074 19.352 84.4242 23.3426 86.7356 26.6273L91.1242 23.539ZM85.9768 8.43957L50.1705 -2.32299L48.6258 2.81616L84.4321 13.5787L85.9768 8.43957Z" fill="white" mask="url(#path-1-inside-1_843_163)"/>
<mask id="path-3-inside-2_843_163" fill="white">
<path fill-rule="evenodd" clip-rule="evenodd" d="M8.07788 38.5349V58.0235C8.07788 58.0235 9.26274 68.2208 20.1588 83.9362C31.0549 99.6517 49.3982 105.122 49.3982 105.122C49.3982 105.122 49.7138 105.028 50.2868 104.829L50.3422 104.809L50.4715 104.764C54.5489 103.325 69.3176 97.3786 78.6377 83.9362C89.5337 68.2208 90.7186 58.0235 90.7186 58.0235V38.4952C83.0635 34.4342 77.7466 26.5511 77.3113 17.3895L49.3982 8.99951L21.5181 17.3796C21.0935 26.5678 15.759 34.474 8.07788 38.5349Z"/>
</mask>
<path d="M8.07788 38.5349L7.57625 37.5861L7.00462 37.8883V38.5349H8.07788ZM8.07788 58.0235H7.00462V58.0857L7.0118 58.1474L8.07788 58.0235ZM20.1588 83.9362L19.2768 84.5478L20.1588 83.9362ZM49.3982 105.122L49.0915 106.15L49.3982 106.242L49.7049 106.15L49.3982 105.122ZM50.2868 104.829L50.6389 105.842L50.6398 105.842L50.2868 104.829ZM50.3422 104.809L50.6952 105.823L50.6976 105.822L50.3422 104.809ZM50.4715 104.764L50.8269 105.777L50.8287 105.776L50.4715 104.764ZM78.6377 83.9362L79.5197 84.5478L78.6377 83.9362ZM90.7186 58.0235L91.7847 58.1474L91.7919 58.0857V58.0235H90.7186ZM90.7186 38.4952H91.7919V37.8497L91.2216 37.5471L90.7186 38.4952ZM77.3113 17.3895L78.3833 17.3386L78.3473 16.5803L77.6202 16.3617L77.3113 17.3895ZM49.3982 8.99951L49.7072 7.97168L49.3982 7.87882L49.0893 7.97168L49.3982 8.99951ZM21.5181 17.3796L21.2092 16.3518L20.4811 16.5707L20.446 17.3301L21.5181 17.3796ZM7.00462 38.5349V58.0235H9.15114V38.5349H7.00462ZM8.07788 58.0235C7.0118 58.1474 7.01186 58.1479 7.01192 58.1484C7.01194 58.1487 7.01201 58.1492 7.01207 58.1497C7.01217 58.1506 7.0123 58.1517 7.01245 58.1529C7.01274 58.1554 7.01312 58.1585 7.01357 58.1622C7.01449 58.1696 7.01573 58.1795 7.01734 58.1918C7.02055 58.2165 7.02522 58.251 7.03161 58.2953C7.04438 58.3837 7.06401 58.5109 7.0926 58.6758C7.14978 59.0055 7.24277 59.4856 7.38827 60.1071C7.6793 61.35 8.18033 63.1577 9.0249 65.4567C10.7143 70.0554 13.7766 76.6148 19.2768 84.5478L21.0408 83.3247C15.645 75.5422 12.6668 69.1453 11.0397 64.7165C10.2261 62.5017 9.7499 60.7779 9.47826 59.6177C9.34243 59.0376 9.25773 58.5983 9.20755 58.309C9.18245 58.1643 9.16599 58.0571 9.15609 57.9885C9.15113 57.9542 9.14782 57.9296 9.14589 57.9147C9.14492 57.9073 9.1443 57.9023 9.14399 57.8998C9.14383 57.8985 9.14376 57.8979 9.14375 57.8979C9.14375 57.8979 9.14377 57.898 9.14381 57.8983C9.14382 57.8984 9.14386 57.8988 9.14387 57.8989C9.14392 57.8992 9.14396 57.8997 8.07788 58.0235ZM19.2768 84.5478C24.8487 92.5841 32.3064 97.9786 38.34 101.359C41.3611 103.051 44.0373 104.245 45.9622 105.017C46.9249 105.404 47.7007 105.685 48.239 105.871C48.5081 105.963 48.7179 106.032 48.8621 106.078C48.9342 106.102 48.9899 106.119 49.0284 106.131C49.0476 106.137 49.0626 106.141 49.0732 106.145C49.0784 106.146 49.0826 106.147 49.0857 106.148C49.0872 106.149 49.0885 106.149 49.0895 106.149C49.0899 106.15 49.0905 106.15 49.0907 106.15C49.0912 106.15 49.0915 106.15 49.3982 105.122C49.7049 104.093 49.7052 104.093 49.7054 104.093C49.7053 104.093 49.7054 104.093 49.7054 104.093C49.7052 104.093 49.7048 104.093 49.7041 104.093C49.7027 104.092 49.7002 104.092 49.6967 104.091C49.6895 104.088 49.678 104.085 49.6622 104.08C49.6306 104.07 49.582 104.055 49.5171 104.034C49.3872 103.993 49.1923 103.929 48.9386 103.841C48.4311 103.666 47.6887 103.397 46.7615 103.025C44.9065 102.281 42.3159 101.125 39.3891 99.4859C33.527 96.202 26.365 91.0038 21.0408 83.3247L19.2768 84.5478ZM49.3982 105.122C49.7049 106.15 49.705 106.15 49.705 106.15C49.705 106.15 49.7051 106.15 49.7051 106.15C49.7052 106.15 49.7052 106.15 49.7053 106.15C49.7055 106.15 49.7056 106.15 49.7058 106.15C49.7062 106.15 49.7066 106.15 49.7072 106.149C49.7082 106.149 49.7096 106.149 49.7112 106.148C49.7146 106.147 49.7191 106.146 49.7249 106.144C49.7364 106.141 49.7528 106.136 49.7739 106.129C49.8161 106.116 49.8772 106.097 49.9562 106.071C50.1143 106.021 50.3443 105.945 50.6389 105.842L49.9347 103.815C49.6564 103.911 49.4421 103.982 49.2991 104.028C49.2276 104.051 49.174 104.068 49.1391 104.079C49.1217 104.084 49.1089 104.088 49.1009 104.09C49.097 104.091 49.0942 104.092 49.0926 104.093C49.0918 104.093 49.0913 104.093 49.0912 104.093C49.0911 104.093 49.0911 104.093 49.0911 104.093C49.0912 104.093 49.0912 104.093 49.0913 104.093C49.0913 104.093 49.0914 104.093 49.0914 104.093C49.0914 104.093 49.0915 104.093 49.0915 104.093C49.0915 104.093 49.0916 104.093 49.3982 105.122ZM50.6398 105.842L50.6952 105.823L49.9892 103.796L49.9338 103.815L50.6398 105.842ZM50.6976 105.822L50.8269 105.777L50.1161 103.751L49.9868 103.797L50.6976 105.822ZM50.8287 105.776C54.9657 104.316 70.0022 98.2749 79.5197 84.5478L77.7557 83.3247C68.6331 96.4823 54.1321 102.334 50.1143 103.752L50.8287 105.776ZM79.5197 84.5478C85.0199 76.6148 88.0821 70.0554 89.7716 65.4567C90.6161 63.1577 91.1172 61.35 91.4082 60.1071C91.5537 59.4856 91.6467 59.0055 91.7039 58.6758C91.7325 58.5109 91.7521 58.3837 91.7649 58.2953C91.7713 58.251 91.7759 58.2165 91.7791 58.1918C91.7807 58.1795 91.782 58.1696 91.7829 58.1622C91.7834 58.1585 91.7837 58.1554 91.784 58.1529C91.7842 58.1517 91.7843 58.1506 91.7844 58.1497C91.7845 58.1492 91.7845 58.1487 91.7846 58.1484C91.7846 58.1479 91.7847 58.1474 90.7186 58.0235C89.6525 57.8997 89.6526 57.8992 89.6526 57.8989C89.6526 57.8988 89.6527 57.8984 89.6527 57.8983C89.6527 57.898 89.6527 57.8979 89.6527 57.8979C89.6527 57.8979 89.6526 57.8985 89.6525 57.8998C89.6522 57.9023 89.6516 57.9073 89.6506 57.9147C89.6487 57.9296 89.6453 57.9542 89.6404 57.9885C89.6305 58.0571 89.614 58.1643 89.5889 58.309C89.5387 58.5983 89.454 59.0376 89.3182 59.6177C89.0466 60.7779 88.5704 62.5017 87.7567 64.7165C86.1297 69.1453 83.1515 75.5423 77.7557 83.3247L79.5197 84.5478ZM91.7919 58.0235V38.4952H89.6453V58.0235H91.7919ZM91.2216 37.5471C83.8892 33.6573 78.8 26.1082 78.3833 17.3386L76.2393 17.4405C76.6931 26.9941 82.2378 35.2111 90.2156 39.4433L91.2216 37.5471ZM77.6202 16.3617L49.7072 7.97168L49.0893 10.0273L77.0024 18.4174L77.6202 16.3617ZM49.0893 7.97168L21.2092 16.3518L21.8271 18.4075L49.7072 10.0273L49.0893 7.97168ZM20.446 17.3301C20.0396 26.1251 14.9335 33.6964 7.57625 37.5861L8.57951 39.4837C16.5845 35.2516 22.1474 27.0105 22.5902 17.4292L20.446 17.3301Z" fill="white" mask="url(#path-3-inside-2_843_163)"/>
<circle cx="49.3981" cy="9.82782" r="2.11737" fill="white"/>
<circle cx="49.3985" cy="104.221" r="2.11968" fill="white"/>
<circle cx="8.99627" cy="38.7424" r="2.1198" fill="white"/>
<circle cx="89.4858" cy="39.0607" r="2.1198" fill="white"/>
<path d="M11.5285 78.877H87.3621L94.0909 68.4626L97.0119 57.0604H0.830078L5.02762 68.309L11.5285 78.877Z" fill="white"/>
<path d="M45.3979 88.4893L49.3979 84.4893L53.3979 88.4893L49.3979 96.4893L45.3979 88.4893Z" fill="#F03C23"/>
</svg>
