<svg width="97" height="115" viewBox="0 0 97 115" fill="none" xmlns="http://www.w3.org/2000/svg">
<path d="M12.426 97.9144V18.3042C19.5054 15.6385 25.1274 10.003 27.7748 2.91385C40.1657 10.8212 56.117 10.9511 68.5728 3.13817C71.2184 10.233 76.8426 15.8733 83.926 18.5406V98.146L48.1797 113.604L12.426 97.9144Z" stroke="white" stroke-width="2.5"/>
<path d="M3.6046 57.9673H92.2577L96.176 79.9673H0.176025L3.6046 57.9673Z" fill="white"/>
<path d="M82.769 87.7319L84.9799 89.0084L96.1722 79.959L93.9613 78.6826L82.769 87.7319Z" fill="white"/>
<path d="M82.769 87.7319L84.9799 89.0084L96.176 79.9673L93.9613 78.6826L82.769 87.7319Z" fill="white"/>
<path d="M13.5857 87.7319L11.3748 89.0084L0.178711 79.9673L2.39341 78.6826L13.5857 87.7319Z" fill="white"/>
<path d="M18.9181 92.5369V22.6558C23.8118 20.1081 27.9209 16.2671 30.7946 11.5826C41.7728 16.6499 54.4953 16.7431 65.5285 11.7626C68.4035 16.4685 72.5237 20.3267 77.4338 22.8829V92.7399L48.1944 105.384L18.9181 92.5369Z" stroke="white" stroke-width="1.07"/>
<path d="M44.176 89.21L48.176 85.21L52.176 89.21L48.176 97.21L44.176 89.21Z" fill="#F03C23"/>
<circle cx="19.0034" cy="22.8101" r="2" fill="white"/>
<circle cx="77.4331" cy="22.8101" r="2" fill="white"/>
<circle cx="48.176" cy="104.967" r="2" fill="white"/>
</svg>
