<svg width="121" height="41" viewBox="0 0 121 41" fill="none" xmlns="http://www.w3.org/2000/svg">
<path d="M28.6203 4.3523C27.7691 4.56508 27.3436 6.02552 27.3436 8.73362V24.576C26.8407 24.576 25.2835 25.5722 22.6721 27.5646C20.4283 26.1912 18.6003 25.2627 17.1882 24.7791L16.6079 24.576C17.4977 24.576 17.9426 23.1833 17.9426 20.3978V14.5367L19.2773 14.3336C19.4514 14.3142 19.6062 14.2756 19.7416 14.2175L20.3799 13.9854C22.0241 13.3857 23.3298 12.5733 24.297 11.5481V8.09528C24.297 7.1281 24.0939 5.93847 23.6877 4.5264C22.9139 1.8183 21.4148 0.309498 19.1903 0C23.0203 0.425559 25.5253 2.11812 26.7053 5.07769C27.3049 4.63278 27.9432 4.39099 28.6203 4.3523ZM24.297 25.4755V13.231L24.0358 13.3761C23.7457 13.4728 23.4942 13.5985 23.2814 13.7533C22.469 14.2369 21.7049 14.498 20.9892 14.5367V20.9491C20.9892 21.6454 20.7087 22.3321 20.1478 23.0092C19.6062 23.6862 18.9968 24.0827 18.3198 24.1988C19.3837 24.2375 20.2445 24.4213 20.9022 24.7501C21.3471 24.9822 22.1112 25.4078 23.1944 26.0268L24.297 25.4755Z" fill="black"/>
<path d="M41.7858 28.5511C41.1861 28.5511 40.6735 28.406 40.2479 28.1159C39.126 27.5162 38.2459 26.4717 37.6075 24.9822C35.944 25.5625 34.3965 26.4717 32.9651 27.7097L30.2086 24.634V13.7533C29.8798 13.5212 29.5703 13.3471 29.2801 13.231L28.8159 13.0569C29.2415 13.0569 29.6573 12.9892 30.0636 12.8538C30.4891 12.7184 31.3209 12.3799 32.5589 11.8383L32.9651 11.6352V23.3864L34.8221 25.4174C36.0987 24.8952 36.9692 24.5953 37.4335 24.518V13.4631C36.9499 13.231 36.621 13.0472 36.4469 12.9118L36.0407 12.7958C36.3309 12.7958 36.7564 12.7087 37.3174 12.5346C38.4587 12.1671 39.3485 11.8479 39.9868 11.5771L40.451 11.374V24.4019C40.451 26.8779 40.8959 28.261 41.7858 28.5511Z" fill="black"/>
<path d="M52.9869 27.5646C52.9869 27.758 52.9579 27.9224 52.8999 28.0578C52.4743 30.4564 51.0236 31.6751 48.5476 31.7138C49.6308 31.4817 50.1724 30.0986 50.1724 27.5646V15.8134L48.5476 14.1305C47.8512 14.5173 46.9807 14.8172 45.9362 15.03C45.9749 15.2234 45.9942 15.5619 45.9942 16.0455V19.9045C45.9749 20.0593 45.9652 20.2237 45.9652 20.3978L45.9942 27.5646L45.559 27.3615C45.3849 27.2841 45.0174 27.1293 44.4564 26.8972C43.4699 26.4717 42.6478 26.2395 41.9901 26.2009C42.1255 26.1815 42.5414 25.9397 43.2378 25.4755V15.9875C43.2378 14.556 43.0443 13.4051 42.6575 12.5346C42.4834 12.1478 42.2609 11.906 41.9901 11.8092C43.8858 11.8673 45.1431 12.7668 45.7621 14.5077C46.768 14.0434 47.5417 13.5695 48.0833 13.0859L50.1724 11.2289L52.9869 14.5367V27.5646Z" fill="black"/>
<path d="M65.9517 31.1915C65.9517 32.6423 65.6519 33.8996 65.0522 34.9635C64.0077 36.8011 62.3635 38.1358 60.1196 38.9676C58.1852 39.6833 56.541 40.0412 55.187 40.0412H54.3165C58.4754 38.9773 61.1448 36.8592 62.3248 33.6868C62.6923 32.7003 62.8761 31.8685 62.8761 31.1915V25.9687C61.3092 25.8527 59.8391 26.3846 58.4657 27.5646L55.6512 24.576V14.8268H55.7673L58.4657 11.5481H58.7849C59.7714 12.5733 60.7193 13.2503 61.6284 13.5792C61.8799 13.7533 62.5279 13.9854 63.5724 14.2756L65.6035 14.8268H65.9517V31.1915ZM62.8761 25.2143V14.8268C61.6768 14.498 60.7773 14.2562 60.1776 14.1015L58.7849 15.8134V23.5314L60.6419 25.6496C61.3189 25.4755 62.0636 25.3304 62.8761 25.2143Z" fill="black"/>
<path d="M78.8648 21.7905C78.2651 22.1967 77.4237 22.7093 76.3404 23.3283C74.9477 24.1408 73.7581 24.9242 72.7715 25.6786C73.6033 28.4641 75.0831 30.0019 77.2109 30.292C76.766 30.2533 76.3114 30.1856 75.8472 30.0889C71.3981 29.1411 69.1736 26.375 69.1736 21.7905V14.8268L69.6089 14.7978C70.0344 14.7785 70.7985 14.556 71.9011 14.1305C73.2938 13.6082 74.4157 12.9892 75.2669 12.2735L76.1373 11.5481L78.8648 14.5367V21.7905ZM75.8472 22.661V15.8134L74.2223 13.9274L72.1912 14.6237L72.2493 22.661C72.2493 23.28 72.3557 23.9763 72.5684 24.7501C74.0966 23.7055 75.1895 23.0092 75.8472 22.661Z" fill="black"/>
<path d="M91.8343 23.1542L91.4861 23.3574C89.5904 24.4599 88.1977 25.4078 87.3079 26.2009L85.7701 27.5646L81.5338 24.576V16.2486L81.9401 15.9875C82.0174 15.9294 82.3076 15.6876 82.8105 15.2621L87.1048 11.5481L91.8343 14.5367V23.1542ZM88.7587 24.0247V16.0745L86.0602 14.1015L84.3483 15.204L84.4064 23.0382L87.0468 25.1563C87.4336 24.9048 88.0043 24.5276 88.7587 24.0247Z" fill="black"/>
<path d="M104.399 27.5646C104.399 27.758 104.37 27.9224 104.312 28.0578C103.887 30.4564 102.436 31.6751 99.9598 31.7138C101.043 31.4817 101.585 30.0986 101.585 27.5646V15.8134L99.9598 14.1305C99.2635 14.5173 98.393 14.8172 97.3484 15.03C97.3871 15.2234 97.4065 15.5619 97.4065 16.0455V19.9045C97.3871 20.0593 97.3775 20.2237 97.3775 20.3978L97.4065 27.5646L96.9713 27.3615C96.7972 27.2841 96.4296 27.1293 95.8687 26.8972C94.8821 26.4717 94.06 26.2395 93.4024 26.2009C93.5378 26.1815 93.9537 25.9397 94.65 25.4755V15.9875C94.65 14.556 94.4566 13.4051 94.0697 12.5346C93.8956 12.1478 93.6732 11.906 93.4024 11.8092C95.298 11.8673 96.5554 12.7668 97.1744 14.5077C98.1802 14.0434 98.954 13.5695 99.4956 13.0859L101.585 11.2289L104.399 14.5367V27.5646Z" fill="black"/>
<path d="M0 18.9805L2.37255 16.6079L4.7451 18.9805L2.37255 23.7256L0 18.9805Z" fill="#F03C23"/>
<path d="M116.255 18.9805L118.627 16.6079L121 18.9805L118.627 23.7256L116.255 18.9805Z" fill="#F03C23"/>
</svg>
