<svg width="98" height="115" viewBox="0 0 98 115" fill="none" xmlns="http://www.w3.org/2000/svg">
<mask id="path-1-inside-1_834_93" fill="white">
<path fill-rule="evenodd" clip-rule="evenodd" d="M48.8745 0.853027L13.0682 11.6156C13.0682 11.6156 13.2752 20.1014 9.34278 25.6896C5.41032 31.2779 0.0290527 31.8988 0.0290527 31.8988V58.8051C0.0290527 58.8051 1.4297 70.8594 14.3101 89.4369C27.1905 108.014 48.8745 114.48 48.8745 114.48C48.8745 114.48 70.5585 108.014 83.4389 89.4369C96.3193 70.8594 97.7199 58.8051 97.7199 58.8051V31.8988C97.7199 31.8988 92.3387 31.2779 88.4062 25.6896C84.4738 20.1014 84.6808 11.6156 84.6808 11.6156L48.8745 0.853027Z"/>
</mask>
<path fill-rule="evenodd" clip-rule="evenodd" d="M48.8745 0.853027L13.0682 11.6156C13.0682 11.6156 13.2752 20.1014 9.34278 25.6896C5.41032 31.2779 0.0290527 31.8988 0.0290527 31.8988V58.8051C0.0290527 58.8051 1.4297 70.8594 14.3101 89.4369C27.1905 108.014 48.8745 114.48 48.8745 114.48C48.8745 114.48 70.5585 108.014 83.4389 89.4369C96.3193 70.8594 97.7199 58.8051 97.7199 58.8051V31.8988C97.7199 31.8988 92.3387 31.2779 88.4062 25.6896C84.4738 20.1014 84.6808 11.6156 84.6808 11.6156L48.8745 0.853027Z" fill="#1D1D1D"/>
<path d="M13.0682 11.6156L12.2958 9.04601L10.3359 9.63512L10.3859 11.681L13.0682 11.6156ZM48.8745 0.853027L49.6469 -1.71655L48.8745 -1.9487L48.1021 -1.71655L48.8745 0.853027ZM9.34278 25.6896L7.14849 24.1455L7.14849 24.1455L9.34278 25.6896ZM0.0290527 31.8988L-0.278499 29.2333L-2.65409 29.5074L-2.65409 31.8988H0.0290527ZM0.0290527 58.8051H-2.65409V58.9604L-2.63616 59.1148L0.0290527 58.8051ZM14.3101 89.4369L16.5151 87.9081L16.5151 87.9081L14.3101 89.4369ZM48.8745 114.48L48.1078 117.052L48.8745 117.28L49.6412 117.052L48.8745 114.48ZM83.4389 89.4369L81.2339 87.9081L81.2339 87.9081L83.4389 89.4369ZM97.7199 58.8051L100.385 59.1148L100.403 58.9604V58.8051H97.7199ZM97.7199 31.8988H100.403V29.5074L98.0275 29.2333L97.7199 31.8988ZM88.4062 25.6896L90.6005 24.1455L90.6005 24.1455L88.4062 25.6896ZM84.6808 11.6156L87.3631 11.681L87.413 9.63511L85.4531 9.04601L84.6808 11.6156ZM13.8406 14.1852L49.6469 3.4226L48.1021 -1.71655L12.2958 9.04601L13.8406 14.1852ZM11.5371 27.2338C13.8485 23.9491 14.8653 19.9584 15.3313 16.9705C15.5689 15.4466 15.6736 14.1135 15.7192 13.1564C15.7421 12.6767 15.7502 12.2881 15.7525 12.0134C15.7536 11.876 15.7533 11.7668 15.7526 11.6888C15.7523 11.6497 15.7518 11.6184 15.7514 11.5952C15.7512 11.5836 15.7511 11.574 15.7509 11.5665C15.7508 11.5627 15.7508 11.5595 15.7507 11.5567C15.7507 11.5554 15.7506 11.5541 15.7506 11.553C15.7506 11.5525 15.7506 11.5518 15.7506 11.5515C15.7506 11.5508 15.7505 11.5501 13.0682 11.6156C10.3859 11.681 10.3858 11.6804 10.3858 11.6799C10.3858 11.6797 10.3858 11.6792 10.3858 11.6789C10.3858 11.6783 10.3858 11.6779 10.3858 11.6775C10.3858 11.6769 10.3858 11.6767 10.3858 11.6771C10.3858 11.6777 10.3858 11.6804 10.3859 11.685C10.3861 11.6943 10.3863 11.7113 10.3865 11.7358C10.387 11.7847 10.3872 11.8633 10.3864 11.9688C10.3846 12.1801 10.3782 12.4981 10.359 12.9012C10.3205 13.7099 10.2312 14.8474 10.0291 16.1436C9.61547 18.7956 8.76952 21.8419 7.14849 24.1455L11.5371 27.2338ZM0.0290527 31.8988C0.336604 34.5642 0.337851 34.5641 0.339119 34.5639C0.33957 34.5639 0.340861 34.5637 0.341763 34.5636C0.343567 34.5634 0.345458 34.5632 0.347433 34.563C0.351382 34.5625 0.355672 34.562 0.360298 34.5614C0.369549 34.5603 0.380146 34.5589 0.392062 34.5574C0.415892 34.5543 0.445011 34.5503 0.4792 34.5453C0.54756 34.5352 0.636307 34.5211 0.743685 34.5018C0.958285 34.4631 1.24831 34.4034 1.59953 34.313C2.30075 34.1327 3.25422 33.8286 4.34215 33.3229C6.52571 32.3081 9.25401 30.4781 11.5371 27.2337L7.14849 24.1455C5.49909 26.4894 3.57052 27.764 2.08034 28.4566C1.33139 28.8047 0.693762 29.0051 0.263109 29.1158C0.0483927 29.171 -0.112717 29.2034 -0.207766 29.2205C-0.255213 29.2291 -0.285919 29.2338 -0.298306 29.2356C-0.304491 29.2365 -0.306069 29.2367 -0.302843 29.2363C-0.301228 29.2361 -0.29841 29.2357 -0.294362 29.2352C-0.292337 29.235 -0.290006 29.2347 -0.287363 29.2344C-0.286042 29.2342 -0.284642 29.234 -0.283165 29.2339C-0.282427 29.2338 -0.281259 29.2336 -0.280891 29.2336C-0.279705 29.2335 -0.278499 29.2333 0.0290527 31.8988ZM2.71219 58.8051V31.8988H-2.65409V58.8051H2.71219ZM16.5151 87.9081C10.2054 78.8075 6.74017 71.3525 4.85799 66.2292C3.91652 63.6665 3.36997 61.684 3.06164 60.3672C2.90746 59.7086 2.81278 59.2163 2.75807 58.9008C2.73071 58.7431 2.71335 58.6296 2.70353 58.5615C2.69862 58.5275 2.69559 58.5049 2.69415 58.4938C2.69343 58.4883 2.6931 58.4856 2.69313 58.4859C2.69315 58.486 2.69325 58.4869 2.69344 58.4885C2.69354 58.4893 2.69365 58.4902 2.69379 58.4914C2.69386 58.492 2.69398 58.493 2.69401 58.4933C2.69413 58.4943 2.69426 58.4954 0.0290527 58.8051C-2.63616 59.1148 -2.63602 59.116 -2.63587 59.1172C-2.63582 59.1177 -2.63567 59.1189 -2.63556 59.1199C-2.63533 59.1218 -2.63509 59.1239 -2.63482 59.1261C-2.63427 59.1306 -2.63364 59.1359 -2.6329 59.1419C-2.63142 59.1539 -2.62954 59.1688 -2.62722 59.1866C-2.62258 59.2223 -2.61616 59.2696 -2.60767 59.3285C-2.59069 59.4461 -2.56538 59.6097 -2.52928 59.8178C-2.45708 60.2341 -2.34171 60.8287 -2.16332 61.5905C-1.80652 63.1144 -1.19788 65.3066 -0.179136 68.0797C1.85911 73.6279 5.53444 81.4888 12.1051 90.9657L16.5151 87.9081ZM48.8745 114.48C49.6412 111.909 49.6419 111.909 49.6426 111.91C49.6427 111.91 49.6432 111.91 49.6434 111.91C49.6438 111.91 49.6438 111.91 49.6436 111.91C49.643 111.91 49.6412 111.909 49.6381 111.908C49.6319 111.906 49.6205 111.903 49.6042 111.898C49.5714 111.888 49.5185 111.871 49.4465 111.848C49.3025 111.802 49.0819 111.73 48.7921 111.63C48.2124 111.43 47.3569 111.12 46.2843 110.69C44.1374 109.828 41.1314 108.488 37.7338 106.584C30.9173 102.766 22.6456 96.7502 16.5151 87.9081L12.1051 90.9657C18.855 100.701 27.8655 107.207 35.1111 111.266C38.7445 113.301 41.9646 114.739 44.2859 115.67C45.4475 116.136 46.3866 116.477 47.0431 116.703C47.3714 116.816 47.6292 116.901 47.8091 116.958C47.8991 116.987 47.9696 117.009 48.0196 117.025C48.0447 117.033 48.0646 117.039 48.0793 117.043C48.0867 117.045 48.0928 117.047 48.0975 117.049C48.0999 117.049 48.1019 117.05 48.1036 117.05C48.1045 117.051 48.1055 117.051 48.1059 117.051C48.1069 117.051 48.1078 117.052 48.8745 114.48ZM48.8745 114.48C49.6412 117.052 49.6421 117.051 49.6431 117.051C49.6435 117.051 49.6445 117.051 49.6454 117.05C49.6471 117.05 49.6491 117.049 49.6515 117.049C49.6562 117.047 49.6623 117.045 49.6696 117.043C49.6844 117.039 49.7043 117.033 49.7294 117.025C49.7794 117.009 49.8499 116.987 49.9399 116.958C50.1198 116.901 50.3776 116.816 50.7059 116.703C51.3624 116.477 52.3015 116.136 53.4631 115.67C55.7844 114.739 59.0045 113.301 62.6379 111.266C69.8834 107.207 78.894 100.701 85.6439 90.9657L81.2339 87.9081C75.1033 96.7502 66.8317 102.766 60.0152 106.584C56.6176 108.488 53.6116 109.828 51.4647 110.69C50.3921 111.12 49.5365 111.43 48.9569 111.63C48.6671 111.73 48.4465 111.802 48.3025 111.848C48.2304 111.871 48.1776 111.888 48.1448 111.898C48.1285 111.903 48.1171 111.906 48.1109 111.908C48.1078 111.909 48.1059 111.91 48.1054 111.91C48.1052 111.91 48.1052 111.91 48.1056 111.91C48.1058 111.91 48.1063 111.91 48.1064 111.91C48.1071 111.909 48.1078 111.909 48.8745 114.48ZM85.6439 90.9657C92.2145 81.4888 95.8899 73.6279 97.9281 68.0797C98.9469 65.3066 99.5555 63.1144 99.9123 61.5905C100.091 60.8287 100.206 60.2341 100.278 59.8178C100.314 59.6097 100.34 59.4461 100.357 59.3285C100.365 59.2696 100.372 59.2223 100.376 59.1866C100.379 59.1688 100.38 59.1539 100.382 59.1419C100.383 59.1359 100.383 59.1306 100.384 59.1261C100.384 59.1239 100.384 59.1218 100.385 59.1199C100.385 59.1189 100.385 59.1177 100.385 59.1172C100.385 59.116 100.385 59.1148 97.7199 58.8051C95.0547 58.4954 95.0549 58.4943 95.055 58.4933C95.055 58.493 95.0551 58.492 95.0552 58.4914C95.0553 58.4902 95.0555 58.4893 95.0555 58.4885C95.0557 58.4869 95.0558 58.486 95.0559 58.4859C95.0559 58.4856 95.0556 58.4883 95.0548 58.4938C95.0534 58.5049 95.0504 58.5275 95.0455 58.5615C95.0356 58.6296 95.0183 58.7431 94.9909 58.9008C94.9362 59.2163 94.8415 59.7086 94.6873 60.3672C94.379 61.684 93.8325 63.6665 92.891 66.2292C91.0088 71.3525 87.5436 78.8075 81.2339 87.9081L85.6439 90.9657ZM100.403 58.8051V31.8988H95.0368V58.8051H100.403ZM97.7199 31.8988C98.0275 29.2333 98.0287 29.2335 98.0299 29.2336C98.0303 29.2336 98.0314 29.2338 98.0322 29.2339C98.0336 29.234 98.035 29.2342 98.0364 29.2344C98.039 29.2347 98.0413 29.235 98.0434 29.2352C98.0474 29.2357 98.0502 29.2361 98.0518 29.2363C98.0551 29.2367 98.0535 29.2365 98.0473 29.2356C98.0349 29.2338 98.0042 29.2291 97.9568 29.2205C97.8617 29.2034 97.7006 29.171 97.4859 29.1158C97.0552 29.0051 96.4176 28.8047 95.6687 28.4566C94.1785 27.764 92.2499 26.4894 90.6005 24.1455L86.2119 27.2337C88.495 30.4781 91.2233 32.3081 93.4068 33.3229C94.4948 33.8286 95.4482 34.1327 96.1495 34.313C96.5007 34.4034 96.7907 34.4631 97.0053 34.5018C97.1127 34.5211 97.2014 34.5352 97.2698 34.5453C97.304 34.5503 97.3331 34.5543 97.3569 34.5574C97.3688 34.5589 97.3794 34.5603 97.3887 34.5614C97.3933 34.562 97.3976 34.5625 97.4016 34.563C97.4035 34.5632 97.4054 34.5634 97.4072 34.5636C97.4081 34.5637 97.4094 34.5639 97.4099 34.5639C97.4111 34.5641 97.4124 34.5642 97.7199 31.8988ZM90.6005 24.1455C88.9795 21.8419 88.1335 18.7956 87.7199 16.1436C87.5178 14.8474 87.4285 13.7099 87.39 12.9012C87.3708 12.4981 87.3644 12.1801 87.3626 11.9688C87.3617 11.8633 87.362 11.7847 87.3625 11.7357C87.3627 11.7113 87.3629 11.6943 87.3631 11.685C87.3632 11.6804 87.3632 11.6777 87.3632 11.6771C87.3632 11.6767 87.3632 11.6769 87.3632 11.6775C87.3632 11.6779 87.3632 11.6783 87.3632 11.6789C87.3632 11.6792 87.3632 11.6797 87.3632 11.6799C87.3631 11.6804 87.3631 11.681 84.6808 11.6156C81.9984 11.5501 81.9984 11.5508 81.9984 11.5515C81.9984 11.5518 81.9984 11.5525 81.9984 11.553C81.9983 11.5541 81.9983 11.5554 81.9983 11.5567C81.9982 11.5595 81.9982 11.5627 81.9981 11.5665C81.9979 11.574 81.9977 11.5836 81.9975 11.5952C81.9972 11.6184 81.9967 11.6497 81.9964 11.6888C81.9957 11.7668 81.9954 11.876 81.9965 12.0134C81.9988 12.2881 82.0069 12.6767 82.0298 13.1564C82.0753 14.1135 82.1801 15.4466 82.4177 16.9705C82.8837 19.9584 83.9005 23.9491 86.2119 27.2338L90.6005 24.1455ZM85.4531 9.04601L49.6469 -1.71655L48.1021 3.4226L83.9084 14.1852L85.4531 9.04601Z" fill="white" mask="url(#path-1-inside-1_834_93)"/>
<mask id="path-3-inside-2_834_93" fill="white">
<path fill-rule="evenodd" clip-rule="evenodd" d="M7.5542 39.1414V58.63C7.5542 58.63 8.73906 68.8272 19.6351 84.5427C30.5312 100.258 48.8746 105.728 48.8746 105.728C48.8746 105.728 49.1902 105.634 49.7631 105.435L49.8185 105.416L49.9478 105.37C54.0252 103.931 68.794 97.985 78.114 84.5427C89.0101 68.8272 90.1949 58.63 90.1949 58.63V39.1017C82.5399 35.0407 77.2229 27.1576 76.7876 17.996L48.8746 9.60596L20.9945 17.9861C20.5698 27.1743 15.2353 35.0804 7.5542 39.1414Z"/>
</mask>
<path d="M7.5542 39.1414L7.05257 38.1925L6.48094 38.4948V39.1414H7.5542ZM7.5542 58.63H6.48094V58.6921L6.48812 58.7538L7.5542 58.63ZM19.6351 84.5427L18.7531 85.1542L18.7531 85.1542L19.6351 84.5427ZM48.8746 105.728L48.5679 106.757L48.8746 106.848L49.1812 106.757L48.8746 105.728ZM49.7631 105.435L50.1152 106.449L50.1161 106.449L49.7631 105.435ZM49.8185 105.416L50.1715 106.429L50.1739 106.428L49.8185 105.416ZM49.9478 105.37L50.3032 106.383L50.305 106.382L49.9478 105.37ZM78.114 84.5427L78.996 85.1542L78.996 85.1542L78.114 84.5427ZM90.1949 58.63L91.261 58.7538L91.2682 58.6921V58.63H90.1949ZM90.1949 39.1017H91.2682V38.4561L90.6979 38.1536L90.1949 39.1017ZM76.7876 17.996L77.8597 17.9451L77.8236 17.1867L77.0966 16.9682L76.7876 17.996ZM48.8746 9.60596L49.1835 8.57813L48.8746 8.48527L48.5656 8.57813L48.8746 9.60596ZM20.9945 17.9861L20.6855 16.9583L19.9574 17.1771L19.9223 17.9365L20.9945 17.9861ZM6.48094 39.1414V58.63H8.62746V39.1414H6.48094ZM7.5542 58.63C6.48812 58.7538 6.48817 58.7543 6.48824 58.7549C6.48826 58.7551 6.48833 58.7557 6.48838 58.7561C6.48849 58.7571 6.48862 58.7581 6.48877 58.7594C6.48906 58.7618 6.48944 58.7649 6.48989 58.7686C6.49081 58.776 6.49205 58.7859 6.49366 58.7983C6.49687 58.823 6.50154 58.8575 6.50793 58.9017C6.5207 58.9902 6.54033 59.1174 6.56892 59.2822C6.6261 59.6119 6.71909 60.0921 6.86459 60.7135C7.15562 61.9565 7.65665 63.7642 8.50121 66.0631C10.1907 70.6618 13.2529 77.2212 18.7531 85.1542L20.5171 83.9312C15.1213 76.1487 12.1431 69.7517 10.5161 65.3229C9.70241 63.1081 9.22621 61.3843 8.95458 60.2242C8.81875 59.6441 8.73405 59.2048 8.68386 58.9154C8.65877 58.7708 8.64231 58.6635 8.63241 58.5949C8.62745 58.5606 8.62414 58.536 8.6222 58.5211C8.62124 58.5137 8.62062 58.5087 8.62031 58.5062C8.62015 58.505 8.62007 58.5043 8.62007 58.5043C8.62007 58.5043 8.62009 58.5044 8.62012 58.5047C8.62014 58.5049 8.62018 58.5052 8.62019 58.5053C8.62023 58.5057 8.62028 58.5061 7.5542 58.63ZM18.7531 85.1542C24.325 93.1906 31.7827 98.585 37.8163 101.965C40.8374 103.657 43.5136 104.852 45.4385 105.624C46.4013 106.01 47.1771 106.291 47.7153 106.477C47.9844 106.57 48.1942 106.639 48.3384 106.685C48.4105 106.708 48.4662 106.725 48.5047 106.737C48.524 106.743 48.5389 106.748 48.5495 106.751C48.5548 106.753 48.5589 106.754 48.562 106.755C48.5635 106.755 48.5648 106.756 48.5658 106.756C48.5663 106.756 48.5668 106.756 48.567 106.756C48.5675 106.756 48.5679 106.757 48.8746 105.728C49.1813 104.7 49.1815 104.7 49.1817 104.7C49.1816 104.7 49.1817 104.7 49.1817 104.7C49.1815 104.7 49.1811 104.7 49.1804 104.699C49.179 104.699 49.1766 104.698 49.173 104.697C49.1658 104.695 49.1543 104.691 49.1385 104.686C49.1069 104.677 49.0583 104.662 48.9934 104.641C48.8635 104.599 48.6686 104.535 48.4149 104.448C47.9074 104.273 47.165 104.004 46.2378 103.632C44.3828 102.887 41.7922 101.732 38.8654 100.092C33.0034 96.8085 25.8413 91.6102 20.5171 83.9312L18.7531 85.1542ZM48.8746 105.728C49.1812 106.757 49.1813 106.757 49.1813 106.757C49.1813 106.757 49.1814 106.757 49.1814 106.757C49.1815 106.756 49.1815 106.756 49.1816 106.756C49.1818 106.756 49.1819 106.756 49.1821 106.756C49.1825 106.756 49.183 106.756 49.1835 106.756C49.1845 106.756 49.1859 106.755 49.1876 106.755C49.1909 106.754 49.1955 106.752 49.2012 106.751C49.2128 106.747 49.2291 106.742 49.2502 106.735C49.2924 106.722 49.3535 106.703 49.4325 106.678C49.5906 106.627 49.8206 106.551 50.1152 106.449L49.411 104.421C49.1327 104.518 48.9184 104.588 48.7754 104.634C48.704 104.657 48.6503 104.674 48.6154 104.685C48.598 104.69 48.5852 104.694 48.5773 104.697C48.5733 104.698 48.5705 104.699 48.5689 104.699C48.5681 104.699 48.5677 104.7 48.5675 104.7C48.5674 104.7 48.5674 104.7 48.5675 104.7C48.5675 104.7 48.5675 104.7 48.5676 104.7C48.5677 104.7 48.5677 104.7 48.5677 104.7C48.5678 104.7 48.5678 104.7 48.5678 104.7C48.5678 104.7 48.5679 104.7 48.8746 105.728ZM50.1161 106.449L50.1715 106.429L49.4655 104.402L49.4101 104.421L50.1161 106.449ZM50.1739 106.428L50.3032 106.383L49.5924 104.358L49.4631 104.403L50.1739 106.428ZM50.305 106.382C54.442 104.922 69.4785 98.8813 78.996 85.1542L77.232 83.9312C68.1094 97.0888 53.6084 102.94 49.5906 104.358L50.305 106.382ZM78.996 85.1542C84.4962 77.2212 87.5585 70.6618 89.2479 66.0631C90.0925 63.7642 90.5935 61.9565 90.8845 60.7135C91.03 60.0921 91.123 59.6119 91.1802 59.2822C91.2088 59.1174 91.2284 58.9902 91.2412 58.9017C91.2476 58.8575 91.2522 58.823 91.2555 58.7983C91.2571 58.7859 91.2583 58.776 91.2592 58.7686C91.2597 58.7649 91.2601 58.7618 91.2603 58.7594C91.2605 58.7581 91.2606 58.7571 91.2607 58.7561C91.2608 58.7557 91.2609 58.7551 91.2609 58.7549C91.2609 58.7543 91.261 58.7538 90.1949 58.63C89.1288 58.5061 89.1289 58.5057 89.1289 58.5053C89.1289 58.5052 89.129 58.5049 89.129 58.5047C89.129 58.5044 89.129 58.5043 89.129 58.5043C89.129 58.5043 89.129 58.505 89.1288 58.5062C89.1285 58.5087 89.1279 58.5137 89.1269 58.5211C89.125 58.536 89.1217 58.5606 89.1167 58.5949C89.1068 58.6635 89.0903 58.7708 89.0653 58.9154C89.0151 59.2048 88.9304 59.6441 88.7945 60.2242C88.5229 61.3843 88.0467 63.1081 87.2331 65.3229C85.606 69.7517 82.6278 76.1487 77.232 83.9312L78.996 85.1542ZM91.2682 58.63V39.1017H89.1217V58.63H91.2682ZM90.6979 38.1536C83.3655 34.2638 78.2763 26.7146 77.8597 17.9451L75.7156 18.0469C76.1695 27.6005 81.7142 35.8176 89.6919 40.0498L90.6979 38.1536ZM77.0966 16.9682L49.1835 8.57813L48.5656 10.6338L76.4787 19.0238L77.0966 16.9682ZM48.5656 8.57813L20.6855 16.9583L21.3034 19.0139L49.1835 10.6338L48.5656 8.57813ZM19.9223 17.9365C19.5159 26.7316 14.4098 34.3028 7.05257 38.1925L8.05583 40.0902C16.0608 35.8581 21.6238 27.6169 22.0666 18.0356L19.9223 17.9365Z" fill="white" mask="url(#path-3-inside-2_834_93)"/>
<circle cx="48.8744" cy="10.4343" r="2.11737" fill="white"/>
<circle cx="48.8748" cy="104.828" r="2.11968" fill="white"/>
<circle cx="8.47258" cy="39.3488" r="2.1198" fill="white"/>
<circle cx="88.9621" cy="39.6672" r="2.1198" fill="white"/>
<path d="M11.0046 79.4834H86.8382L93.567 69.0691L97.8297 57.6669H0.306152L4.50369 68.9155L11.0046 79.4834Z" fill="white"/>
<path d="M44.8743 89.0957L48.8743 85.0957L52.8743 89.0957L48.8743 97.0957L44.8743 89.0957Z" fill="#F03C23"/>
</svg>
