<svg width="98" height="115" viewBox="0 0 98 115" fill="none" xmlns="http://www.w3.org/2000/svg">
<mask id="path-1-inside-1_834_123" fill="white">
<path fill-rule="evenodd" clip-rule="evenodd" d="M48.8745 0.712402L13.0682 11.475C13.0682 11.475 13.2753 19.9608 9.34279 25.549C5.41033 31.1372 0.029068 31.7581 0.029068 31.7581V58.6645C0.029068 58.6645 1.42971 70.7188 14.3101 89.2963C27.1905 107.874 48.8745 114.34 48.8745 114.34C48.8745 114.34 70.5585 107.874 83.4389 89.2963C96.3193 70.7188 97.72 58.6645 97.72 58.6645V31.7581C97.72 31.7581 92.3387 31.1372 88.4062 25.549C84.4738 19.9608 84.6808 11.475 84.6808 11.475L48.8745 0.712402Z"/>
</mask>
<path d="M13.0682 11.475L12.2959 8.90539L10.336 9.49449L10.3859 11.5404L13.0682 11.475ZM48.8745 0.712402L49.6469 -1.85717L48.8745 -2.08932L48.1022 -1.85717L48.8745 0.712402ZM9.34279 25.549L7.1485 24.0049L7.1485 24.0049L9.34279 25.549ZM0.029068 31.7581L-0.278483 29.0927L-2.65407 29.3668L-2.65407 31.7581H0.029068ZM0.029068 58.6645H-2.65407V58.8198L-2.63614 58.9741L0.029068 58.6645ZM14.3101 89.2963L16.5151 87.7675L16.5151 87.7675L14.3101 89.2963ZM48.8745 114.34L48.1078 116.911L48.8745 117.14L49.6412 116.911L48.8745 114.34ZM83.4389 89.2963L81.2339 87.7675L81.2339 87.7675L83.4389 89.2963ZM97.72 58.6645L100.385 58.9741L100.403 58.8198V58.6645H97.72ZM97.72 31.7581H100.403V29.3668L98.0275 29.0927L97.72 31.7581ZM88.4062 25.549L90.6005 24.0049L90.6005 24.0049L88.4062 25.549ZM84.6808 11.475L87.3631 11.5404L87.4131 9.49449L85.4532 8.90539L84.6808 11.475ZM13.8406 14.0445L49.6469 3.28198L48.1022 -1.85717L12.2959 8.90539L13.8406 14.0445ZM11.5371 27.0931C13.8485 23.8085 14.8653 19.8178 15.3313 16.8299C15.5689 15.306 15.6737 13.9728 15.7192 13.0158C15.7421 12.536 15.7502 12.1475 15.7525 11.8728C15.7536 11.7354 15.7533 11.6262 15.7526 11.5481C15.7523 11.5091 15.7518 11.4778 15.7515 11.4545C15.7513 11.4429 15.7511 11.4334 15.7509 11.4258C15.7508 11.4221 15.7508 11.4188 15.7507 11.4161C15.7507 11.4148 15.7507 11.4135 15.7506 11.4124C15.7506 11.4119 15.7506 11.4111 15.7506 11.4109C15.7506 11.4102 15.7506 11.4095 13.0682 11.475C10.3859 11.5404 10.3859 11.5398 10.3858 11.5392C10.3858 11.5391 10.3858 11.5386 10.3858 11.5383C10.3858 11.5377 10.3858 11.5372 10.3858 11.5369C10.3858 11.5362 10.3858 11.5361 10.3858 11.5364C10.3858 11.5371 10.3859 11.5398 10.3859 11.5444C10.3861 11.5536 10.3863 11.5707 10.3865 11.5951C10.387 11.6441 10.3873 11.7227 10.3864 11.8282C10.3846 12.0394 10.3782 12.3575 10.359 12.7606C10.3205 13.5693 10.2312 14.7068 10.0291 16.0029C9.61548 18.6549 8.76954 21.7013 7.1485 24.0049L11.5371 27.0931ZM0.029068 31.7581C0.336619 34.4236 0.337867 34.4235 0.339134 34.4233C0.339585 34.4233 0.340876 34.4231 0.341778 34.423C0.343583 34.4228 0.345473 34.4226 0.347448 34.4223C0.351398 34.4219 0.355687 34.4213 0.360313 34.4208C0.369564 34.4196 0.380161 34.4183 0.392077 34.4167C0.415908 34.4136 0.445026 34.4096 0.479216 34.4046C0.547576 34.3946 0.636323 34.3805 0.743701 34.3612C0.9583 34.3225 1.24832 34.2627 1.59955 34.1724C2.30077 33.9921 3.25424 33.688 4.34216 33.1823C6.52573 32.1674 9.25402 30.3375 11.5371 27.0931L7.1485 24.0049C5.4991 26.3488 3.57053 27.6234 2.08035 28.316C1.33141 28.6641 0.693777 28.8645 0.263124 28.9752C0.048408 29.0304 -0.112702 29.0628 -0.207751 29.0799C-0.255198 29.0885 -0.285904 29.0932 -0.298291 29.095C-0.304476 29.0959 -0.306054 29.0961 -0.302827 29.0956C-0.301213 29.0954 -0.298394 29.0951 -0.294346 29.0946C-0.292322 29.0943 -0.28999 29.094 -0.287348 29.0937C-0.286026 29.0936 -0.284627 29.0934 -0.28315 29.0932C-0.282412 29.0931 -0.281244 29.093 -0.280875 29.093C-0.27969 29.0928 -0.278483 29.0927 0.029068 31.7581ZM2.71221 58.6645V31.7581H-2.65407V58.6645H2.71221ZM16.5151 87.7675C10.2054 78.6669 6.74018 71.2119 4.858 66.0886C3.91654 63.5259 3.36999 61.5434 3.06166 60.2265C2.90747 59.568 2.8128 59.0757 2.75809 58.7602C2.73073 58.6025 2.71336 58.4889 2.70354 58.4209C2.69863 58.3869 2.69561 58.3643 2.69416 58.3532C2.69344 58.3477 2.69312 58.345 2.69315 58.3453C2.69316 58.3454 2.69327 58.3463 2.69346 58.3478C2.69355 58.3486 2.69367 58.3496 2.69381 58.3508C2.69387 58.3513 2.69399 58.3523 2.69403 58.3526C2.69415 58.3537 2.69428 58.3548 0.029068 58.6645C-2.63614 58.9741 -2.636 58.9753 -2.63586 58.9766C-2.6358 58.977 -2.63565 58.9783 -2.63554 58.9793C-2.63532 58.9812 -2.63507 58.9832 -2.6348 58.9855C-2.63426 58.99 -2.63362 58.9953 -2.63288 59.0013C-2.63141 59.0133 -2.62953 59.0282 -2.62721 59.046C-2.62256 59.0817 -2.61615 59.129 -2.60766 59.1878C-2.59067 59.3055 -2.56537 59.469 -2.52927 59.6772C-2.45707 60.0935 -2.34169 60.6881 -2.16331 61.4499C-1.8065 62.9738 -1.19787 65.166 -0.179121 67.9391C1.85912 73.4872 5.53445 81.3482 12.1051 90.8251L16.5151 87.7675ZM48.8745 114.34C49.6412 111.769 49.642 111.769 49.6426 111.769C49.6427 111.769 49.6432 111.769 49.6434 111.769C49.6438 111.769 49.6439 111.769 49.6436 111.769C49.6431 111.769 49.6412 111.769 49.6381 111.768C49.6319 111.766 49.6206 111.762 49.6042 111.757C49.5714 111.747 49.5186 111.731 49.4466 111.708C49.3025 111.661 49.0819 111.589 48.7922 111.489C48.2125 111.289 47.3569 110.979 46.2843 110.549C44.1374 109.688 41.1315 108.347 37.7338 106.444C30.9173 102.625 22.6457 96.6096 16.5151 87.7675L12.1051 90.8251C18.855 100.56 27.8656 107.067 35.1111 111.125C38.7445 113.161 41.9646 114.598 44.2859 115.529C45.4475 115.995 46.3866 116.336 47.0431 116.562C47.3714 116.676 47.6293 116.76 47.8091 116.818C47.8991 116.847 47.9696 116.869 48.0197 116.884C48.0447 116.892 48.0646 116.898 48.0794 116.903C48.0867 116.905 48.0928 116.907 48.0975 116.908C48.0999 116.909 48.1019 116.909 48.1036 116.91C48.1045 116.91 48.1055 116.91 48.106 116.911C48.1069 116.911 48.1078 116.911 48.8745 114.34ZM48.8745 114.34C49.6412 116.911 49.6421 116.911 49.6431 116.911C49.6435 116.91 49.6445 116.91 49.6454 116.91C49.6471 116.909 49.6491 116.909 49.6515 116.908C49.6562 116.907 49.6623 116.905 49.6697 116.903C49.6844 116.898 49.7043 116.892 49.7294 116.884C49.7794 116.869 49.8499 116.847 49.9399 116.818C50.1198 116.76 50.3776 116.676 50.7059 116.562C51.3624 116.336 52.3015 115.995 53.4631 115.529C55.7844 114.598 59.0045 113.161 62.6379 111.125C69.8835 107.067 78.8941 100.56 85.6439 90.8251L81.2339 87.7675C75.1034 96.6096 66.8318 102.625 60.0152 106.444C56.6176 108.347 53.6116 109.688 51.4647 110.549C50.3921 110.979 49.5366 111.289 48.9569 111.489C48.6671 111.589 48.4465 111.661 48.3025 111.708C48.2305 111.731 48.1776 111.747 48.1448 111.757C48.1285 111.762 48.1171 111.766 48.1109 111.768C48.1078 111.769 48.106 111.769 48.1054 111.769C48.1052 111.769 48.1052 111.769 48.1056 111.769C48.1058 111.769 48.1064 111.769 48.1065 111.769C48.1071 111.769 48.1078 111.769 48.8745 114.34ZM85.6439 90.8251C92.2146 81.3482 95.8899 73.4872 97.9281 67.9391C98.9469 65.166 99.5555 62.9738 99.9123 61.4499C100.091 60.6881 100.206 60.0935 100.278 59.6772C100.314 59.469 100.34 59.3055 100.357 59.1878C100.365 59.129 100.372 59.0817 100.376 59.046C100.379 59.0282 100.38 59.0133 100.382 59.0013C100.383 58.9953 100.383 58.99 100.384 58.9855C100.384 58.9832 100.384 58.9812 100.385 58.9793C100.385 58.9783 100.385 58.977 100.385 58.9766C100.385 58.9753 100.385 58.9741 97.72 58.6645C95.0547 58.3548 95.0549 58.3537 95.055 58.3526C95.055 58.3523 95.0551 58.3513 95.0552 58.3508C95.0554 58.3496 95.0555 58.3486 95.0556 58.3478C95.0558 58.3463 95.0559 58.3454 95.0559 58.3453C95.0559 58.345 95.0556 58.3477 95.0549 58.3532C95.0534 58.3643 95.0504 58.3869 95.0455 58.4209C95.0357 58.4889 95.0183 58.6025 94.9909 58.7602C94.9362 59.0757 94.8415 59.568 94.6874 60.2265C94.379 61.5434 93.8325 63.5259 92.891 66.0886C91.0088 71.2119 87.5436 78.6669 81.2339 87.7675L85.6439 90.8251ZM100.403 58.6645V31.7581H95.0368V58.6645H100.403ZM97.72 31.7581C98.0275 29.0927 98.0287 29.0928 98.0299 29.093C98.0303 29.093 98.0314 29.0931 98.0322 29.0932C98.0337 29.0934 98.035 29.0936 98.0364 29.0937C98.039 29.094 98.0413 29.0943 98.0434 29.0946C98.0474 29.0951 98.0502 29.0954 98.0519 29.0956C98.0551 29.0961 98.0535 29.0959 98.0473 29.095C98.0349 29.0932 98.0042 29.0885 97.9568 29.0799C97.8617 29.0628 97.7006 29.0304 97.4859 28.9752C97.0552 28.8645 96.4176 28.6641 95.6687 28.316C94.1785 27.6234 92.2499 26.3488 90.6005 24.0049L86.2119 27.0931C88.495 30.3375 91.2233 32.1674 93.4069 33.1823C94.4948 33.688 95.4483 33.9921 96.1495 34.1724C96.5007 34.2627 96.7907 34.3225 97.0053 34.3612C97.1127 34.3805 97.2014 34.3946 97.2698 34.4046C97.304 34.4096 97.3331 34.4136 97.3569 34.4167C97.3689 34.4183 97.3795 34.4196 97.3887 34.4208C97.3933 34.4213 97.3976 34.4219 97.4016 34.4223C97.4036 34.4226 97.4054 34.4228 97.4072 34.423C97.4081 34.4231 97.4094 34.4233 97.4099 34.4233C97.4112 34.4235 97.4124 34.4236 97.72 31.7581ZM90.6005 24.0049C88.9795 21.7013 88.1335 18.6549 87.7199 16.0029C87.5178 14.7068 87.4285 13.5693 87.39 12.7606C87.3708 12.3575 87.3644 12.0394 87.3626 11.8282C87.3618 11.7227 87.362 11.6441 87.3625 11.5951C87.3627 11.5707 87.3629 11.5536 87.3631 11.5444C87.3632 11.5398 87.3632 11.5371 87.3632 11.5364C87.3632 11.5361 87.3632 11.5362 87.3632 11.5369C87.3632 11.5372 87.3632 11.5377 87.3632 11.5383C87.3632 11.5386 87.3632 11.5391 87.3632 11.5392C87.3632 11.5398 87.3631 11.5404 84.6808 11.475C81.9985 11.4095 81.9984 11.4102 81.9984 11.4109C81.9984 11.4111 81.9984 11.4119 81.9984 11.4124C81.9984 11.4135 81.9983 11.4148 81.9983 11.4161C81.9982 11.4188 81.9982 11.4221 81.9981 11.4258C81.9979 11.4334 81.9978 11.4429 81.9976 11.4546C81.9972 11.4778 81.9967 11.5091 81.9964 11.5481C81.9957 11.6262 81.9954 11.7354 81.9965 11.8728C81.9988 12.1475 82.007 12.536 82.0298 13.0158C82.0754 13.9728 82.1801 15.306 82.4178 16.8299C82.8837 19.8178 83.9005 23.8085 86.2119 27.0931L90.6005 24.0049ZM85.4532 8.90539L49.6469 -1.85717L48.1022 3.28198L83.9084 14.0445L85.4532 8.90539Z" fill="#1D1D1D" mask="url(#path-1-inside-1_834_123)"/>
<mask id="path-3-inside-2_834_123" fill="white">
<path fill-rule="evenodd" clip-rule="evenodd" d="M7.5542 39.0007V58.4893C7.5542 58.4893 8.73906 68.6866 19.6351 84.4021C30.5312 100.118 48.8746 105.587 48.8746 105.587C48.8746 105.587 49.1902 105.493 49.7631 105.294L49.8185 105.275L49.9478 105.23C54.0252 103.791 68.794 97.8444 78.114 84.4021C89.0101 68.6866 90.1949 58.4893 90.1949 58.4893V38.961C82.5399 34.9001 77.2229 27.017 76.7876 17.8554L48.8746 9.46533L20.9945 17.8455C20.5698 27.0336 15.2353 34.9398 7.5542 39.0007Z"/>
</mask>
<path d="M7.5542 39.0007L7.05257 38.0519L6.48094 38.3541V39.0007H7.5542ZM7.5542 58.4893H6.48094V58.5515L6.48812 58.6132L7.5542 58.4893ZM19.6351 84.4021L18.7531 85.0136L18.7531 85.0136L19.6351 84.4021ZM48.8746 105.587L48.5679 106.616L48.8746 106.707L49.1812 106.616L48.8746 105.587ZM49.7631 105.294L50.1152 106.308L50.1161 106.308L49.7631 105.294ZM49.8185 105.275L50.1715 106.289L50.1739 106.288L49.8185 105.275ZM49.9478 105.23L50.3032 106.242L50.305 106.242L49.9478 105.23ZM78.114 84.4021L78.996 85.0136L78.996 85.0136L78.114 84.4021ZM90.1949 58.4893L91.261 58.6132L91.2682 58.5515V58.4893H90.1949ZM90.1949 38.961H91.2682V38.3155L90.6979 38.0129L90.1949 38.961ZM76.7876 17.8554L77.8597 17.8044L77.8236 17.0461L77.0966 16.8275L76.7876 17.8554ZM48.8746 9.46533L49.1835 8.4375L48.8746 8.34464L48.5656 8.4375L48.8746 9.46533ZM20.9945 17.8455L20.6855 16.8176L19.9574 17.0365L19.9223 17.7959L20.9945 17.8455ZM6.48094 39.0007V58.4893H8.62746V39.0007H6.48094ZM7.5542 58.4893C6.48812 58.6132 6.48817 58.6137 6.48824 58.6143C6.48826 58.6145 6.48833 58.6151 6.48838 58.6155C6.48849 58.6164 6.48862 58.6175 6.48877 58.6187C6.48906 58.6212 6.48944 58.6243 6.48989 58.628C6.49081 58.6354 6.49205 58.6453 6.49366 58.6576C6.49687 58.6823 6.50154 58.7169 6.50793 58.7611C6.5207 58.8495 6.54033 58.9768 6.56892 59.1416C6.6261 59.4713 6.71909 59.9515 6.86459 60.5729C7.15562 61.8159 7.65665 63.6236 8.50121 65.9225C10.1907 70.5212 13.2529 77.0806 18.7531 85.0136L20.5171 83.7905C15.1213 76.0081 12.1431 69.6111 10.5161 65.1823C9.70241 62.9675 9.22621 61.2437 8.95458 60.0835C8.81875 59.5034 8.73405 59.0642 8.68386 58.7748C8.65877 58.6301 8.64231 58.5229 8.63241 58.4543C8.62745 58.42 8.62414 58.3954 8.6222 58.3805C8.62124 58.3731 8.62062 58.3681 8.62031 58.3656C8.62015 58.3643 8.62007 58.3637 8.62007 58.3637C8.62007 58.3637 8.62009 58.3638 8.62012 58.3641C8.62014 58.3643 8.62018 58.3646 8.62019 58.3647C8.62023 58.3651 8.62028 58.3655 7.5542 58.4893ZM18.7531 85.0136C24.325 93.0499 31.7827 98.4444 37.8163 101.824C40.8374 103.517 43.5136 104.711 45.4385 105.483C46.4013 105.87 47.1771 106.151 47.7153 106.336C47.9844 106.429 48.1942 106.498 48.3384 106.544C48.4105 106.567 48.4662 106.585 48.5047 106.597C48.524 106.603 48.5389 106.607 48.5495 106.61C48.5548 106.612 48.5589 106.613 48.562 106.614C48.5635 106.615 48.5648 106.615 48.5658 106.615C48.5663 106.615 48.5668 106.616 48.567 106.616C48.5675 106.616 48.5679 106.616 48.8746 105.587C49.1813 104.559 49.1815 104.559 49.1817 104.559C49.1816 104.559 49.1817 104.559 49.1817 104.559C49.1815 104.559 49.1811 104.559 49.1804 104.559C49.179 104.558 49.1766 104.558 49.173 104.556C49.1658 104.554 49.1543 104.551 49.1385 104.546C49.1069 104.536 49.0583 104.521 48.9934 104.5C48.8635 104.458 48.6686 104.395 48.4149 104.307C47.9074 104.132 47.165 103.863 46.2378 103.491C44.3828 102.747 41.7922 101.591 38.8654 99.9517C33.0034 96.6679 25.8413 91.4696 20.5171 83.7905L18.7531 85.0136ZM48.8746 105.587C49.1812 106.616 49.1813 106.616 49.1813 106.616C49.1813 106.616 49.1814 106.616 49.1814 106.616C49.1815 106.616 49.1815 106.616 49.1816 106.616C49.1818 106.616 49.1819 106.616 49.1821 106.616C49.1825 106.616 49.183 106.615 49.1835 106.615C49.1845 106.615 49.1859 106.615 49.1876 106.614C49.1909 106.613 49.1955 106.612 49.2012 106.61C49.2128 106.606 49.2291 106.601 49.2502 106.595C49.2924 106.582 49.3535 106.563 49.4325 106.537C49.5906 106.486 49.8206 106.411 50.1152 106.308L49.411 104.28C49.1327 104.377 48.9184 104.448 48.7754 104.494C48.704 104.517 48.6503 104.534 48.6154 104.544C48.598 104.55 48.5852 104.554 48.5773 104.556C48.5733 104.557 48.5705 104.558 48.5689 104.559C48.5681 104.559 48.5677 104.559 48.5675 104.559C48.5674 104.559 48.5674 104.559 48.5675 104.559C48.5675 104.559 48.5675 104.559 48.5676 104.559C48.5677 104.559 48.5677 104.559 48.5677 104.559C48.5678 104.559 48.5678 104.559 48.5678 104.559C48.5678 104.559 48.5679 104.559 48.8746 105.587ZM50.1161 106.308L50.1715 106.289L49.4655 104.262L49.4101 104.281L50.1161 106.308ZM50.1739 106.288L50.3032 106.242L49.5924 104.217L49.4631 104.262L50.1739 106.288ZM50.305 106.242C54.442 104.782 69.4785 98.7407 78.996 85.0136L77.232 83.7905C68.1094 96.9481 53.6084 102.8 49.5906 104.218L50.305 106.242ZM78.996 85.0136C84.4962 77.0806 87.5585 70.5212 89.2479 65.9225C90.0925 63.6236 90.5935 61.8159 90.8845 60.5729C91.03 59.9515 91.123 59.4713 91.1802 59.1416C91.2088 58.9768 91.2284 58.8495 91.2412 58.7611C91.2476 58.7169 91.2522 58.6823 91.2555 58.6576C91.2571 58.6453 91.2583 58.6354 91.2592 58.628C91.2597 58.6243 91.2601 58.6212 91.2603 58.6187C91.2605 58.6175 91.2606 58.6164 91.2607 58.6155C91.2608 58.6151 91.2609 58.6145 91.2609 58.6143C91.2609 58.6137 91.261 58.6132 90.1949 58.4893C89.1288 58.3655 89.1289 58.3651 89.1289 58.3647C89.1289 58.3646 89.129 58.3643 89.129 58.3641C89.129 58.3638 89.129 58.3637 89.129 58.3637C89.129 58.3637 89.129 58.3643 89.1288 58.3656C89.1285 58.3681 89.1279 58.3731 89.1269 58.3805C89.125 58.3954 89.1217 58.42 89.1167 58.4543C89.1068 58.5229 89.0903 58.6301 89.0653 58.7748C89.0151 59.0642 88.9304 59.5034 88.7945 60.0835C88.5229 61.2437 88.0467 62.9675 87.2331 65.1823C85.606 69.6111 82.6278 76.0081 77.232 83.7905L78.996 85.0136ZM91.2682 58.4893V38.961H89.1217V58.4893H91.2682ZM90.6979 38.0129C83.3655 34.1232 78.2763 26.574 77.8597 17.8044L75.7156 17.9063C76.1695 27.4599 81.7142 35.677 89.6919 39.9091L90.6979 38.0129ZM77.0966 16.8275L49.1835 8.4375L48.5656 10.4932L76.4787 18.8832L77.0966 16.8275ZM48.5656 8.4375L20.6855 16.8176L21.3034 18.8733L49.1835 10.4932L48.5656 8.4375ZM19.9223 17.7959C19.5159 26.591 14.4098 34.1622 7.05257 38.0519L8.05583 39.9496C16.0608 35.7174 21.6238 27.4763 22.0666 17.895L19.9223 17.7959Z" fill="#1D1D1D" mask="url(#path-3-inside-2_834_123)"/>
<circle cx="48.8744" cy="10.2936" r="2.11737" fill="#1D1D1D"/>
<circle cx="48.8748" cy="104.687" r="2.11968" fill="#1D1D1D"/>
<circle cx="8.47258" cy="39.2082" r="2.1198" fill="#1D1D1D"/>
<circle cx="88.9621" cy="39.5265" r="2.1198" fill="#1D1D1D"/>
<path d="M11.0046 79.3428H86.8382L93.567 68.9284L97.8297 57.5263H0.306152L4.50369 68.7749L11.0046 79.3428Z" fill="#1D1D1D"/>
<path d="M44.8743 88.9551L48.8743 84.9551L52.8743 88.9551L48.8743 96.9551L44.8743 88.9551Z" fill="#F03C23"/>
</svg>
