<svg width="187" height="102" viewBox="0 0 187 102" fill="none" xmlns="http://www.w3.org/2000/svg">
<path d="M25.526 9.4241C23.7174 9.87625 22.8131 12.9797 22.8131 18.7343V52.399C21.7444 52.399 18.4355 54.5159 12.8863 58.7497C8.11818 55.8313 4.23378 53.8583 1.23314 52.8306L0 52.399C1.89082 52.399 2.83622 49.4395 2.83622 43.5204V31.0657L5.67245 30.6341C6.04239 30.593 6.37123 30.5108 6.65896 30.3875L8.01542 29.8942C11.5093 28.62 14.2839 26.8936 16.3391 24.715V17.3778C16.3391 15.3226 15.9075 12.7947 15.0443 9.79404C13.4001 4.03938 10.2145 0.833214 5.48748 0.175537C13.6262 1.07984 18.9493 4.6765 21.4566 10.9655C22.7309 10.0201 24.0873 9.5063 25.526 9.4241ZM16.3391 54.3104V28.2911L15.7842 28.5994C15.1676 28.805 14.6333 29.0721 14.1811 29.401C12.4547 30.4286 10.8311 30.9835 9.31021 31.0657V44.6919C9.31021 46.1717 8.71419 47.6309 7.52216 49.0696C6.37123 50.5082 5.07643 51.3509 3.63776 51.5975C5.89852 51.6797 7.72768 52.0702 9.12524 52.769C10.0706 53.2622 11.6943 54.1665 13.9961 55.4819L16.3391 54.3104Z" fill="white"/>
<path d="M53.5024 60.8461C52.2282 60.8461 51.1389 60.5378 50.2346 59.9212C47.8505 58.647 45.9802 56.4273 44.6238 53.2622C41.0888 54.4954 37.8004 56.4273 34.7587 59.058L28.9013 52.5224V29.401C28.2025 28.9077 27.5448 28.5378 26.9282 28.2911L25.9417 27.9212C26.846 27.9212 27.7298 27.7773 28.593 27.4896C29.4973 27.2019 31.2648 26.4825 33.8955 25.3316L34.7587 24.9V49.8711L38.7047 54.1871C41.4176 53.0773 43.2673 52.4402 44.2539 52.2757V28.7844C43.2262 28.2911 42.5275 27.9007 42.1575 27.6129L41.2943 27.3663C41.9109 27.3663 42.8152 27.1813 44.0072 26.8114C46.4324 26.0304 48.3232 25.3522 49.6797 24.7767L50.6662 24.3451V52.0291C50.6662 57.2905 51.6116 60.2295 53.5024 60.8461Z" fill="white"/>
<path d="M77.3047 58.7497C77.3047 59.1608 77.243 59.5102 77.1197 59.7979C76.2154 64.8949 73.1325 67.4845 67.8711 67.5667C70.173 67.0734 71.3239 64.1344 71.3239 58.7497V33.7786L67.8711 30.2025C66.3914 31.0246 64.5417 31.6617 62.322 32.1139C62.4042 32.5249 62.4453 33.2443 62.4453 34.2719V42.4723C62.4042 42.8011 62.3837 43.1505 62.3837 43.5204L62.4453 58.7497L61.5205 58.3181C61.1505 58.1537 60.3695 57.8249 59.1775 57.3316C57.0812 56.4273 55.3342 55.9341 53.9367 55.8518C54.2244 55.8107 55.1081 55.2969 56.5879 54.3104V34.1486C56.5879 31.1068 56.1769 28.6611 55.3548 26.8114C54.9848 25.9893 54.5121 25.4755 53.9367 25.27C57.9649 25.3933 60.6367 27.3046 61.9521 31.0041C64.0895 30.0175 65.7337 29.0105 66.8846 27.9829L71.3239 24.0368L77.3047 31.0657V58.7497Z" fill="white"/>
<path d="M104.855 66.4568C104.855 69.5397 104.217 72.2115 102.943 74.4723C100.724 78.3772 97.2296 81.2134 92.4615 82.9809C88.351 84.5018 84.8571 85.2622 81.9798 85.2622H80.1301C88.9676 83.0015 94.64 78.5005 97.1474 71.7594C97.9284 69.663 98.3189 67.8955 98.3189 66.4568V55.3586C94.9894 55.112 91.8654 56.2423 88.947 58.7497L82.9663 52.399V31.6823H83.2129L88.947 24.715H89.6252C91.7216 26.8936 93.7357 28.3323 95.6676 29.031C96.202 29.401 97.579 29.8942 99.7987 30.5108L104.115 31.6823H104.855V66.4568ZM98.3189 53.7555V31.6823C95.7704 30.9835 93.859 30.4697 92.5848 30.1409L89.6252 33.7786V50.1794L93.5713 54.6804C95.01 54.3104 96.5925 54.0021 98.3189 53.7555Z" fill="white"/>
<path d="M132.295 46.48C131.02 47.3432 129.232 48.4324 126.93 49.7478C123.971 51.4742 121.443 53.1389 119.347 54.742C121.114 60.6611 124.259 63.9289 128.78 64.5455C127.835 64.4633 126.869 64.3194 125.882 64.1139C116.428 62.0998 111.701 56.2218 111.701 46.48V31.6823L112.626 31.6206C113.53 31.5795 115.154 31.1068 117.497 30.2025C120.456 29.0927 122.84 27.7773 124.649 26.2565L126.499 24.715L132.295 31.0657V46.48ZM125.882 48.3297V33.7786L122.429 29.7709L118.113 31.2507L118.237 48.3297C118.237 49.645 118.463 51.1248 118.915 52.769C122.162 50.5493 124.485 49.0696 125.882 48.3297Z" fill="white"/>
<path d="M159.855 49.3779L159.115 49.8095C155.086 52.1524 152.127 54.1665 150.236 55.8518L146.968 58.7497L137.966 52.399V34.7035L138.829 34.1486C138.994 34.0253 139.61 33.5114 140.679 32.6071L149.804 24.715L159.855 31.0657V49.3779ZM153.319 51.2276V34.3335L147.585 30.1409L143.947 32.4838L144.07 49.1312L149.681 53.6322C150.503 53.0978 151.716 52.2963 153.319 51.2276Z" fill="white"/>
<path d="M186.555 58.7497C186.555 59.1608 186.493 59.5102 186.37 59.7979C185.465 64.8949 182.383 67.4845 177.121 67.5667C179.423 67.0734 180.574 64.1344 180.574 58.7497V33.7786L177.121 30.2025C175.641 31.0246 173.792 31.6617 171.572 32.1139C171.654 32.5249 171.695 33.2443 171.695 34.2719V42.4723C171.654 42.8011 171.634 43.1505 171.634 43.5204L171.695 58.7497L170.77 58.3181C170.401 58.1537 169.62 57.8249 168.428 57.3316C166.331 56.4273 164.584 55.9341 163.187 55.8518C163.474 55.8107 164.358 55.2969 165.838 54.3104V34.1486C165.838 31.1068 165.427 28.6611 164.605 26.8114C164.235 25.9893 163.762 25.4755 163.187 25.27C167.215 25.3933 169.887 27.3046 171.202 31.0041C173.34 30.0175 174.984 29.0105 176.135 27.9829L180.574 24.0368L186.555 31.0657V58.7497Z" fill="white"/>
<path d="M28.5271 94.5551C28.5271 94.7733 28.5664 94.9566 28.645 95.1049C28.7322 95.2446 28.8631 95.3711 29.0377 95.4845C29.221 95.598 29.4479 95.7071 29.7184 95.8118C29.9977 95.9078 30.3293 96.0213 30.7133 96.1522C31.0362 96.2569 31.3548 96.3791 31.6689 96.5187C31.9831 96.6496 32.2624 96.8155 32.5068 97.0162C32.7598 97.2082 32.9606 97.4525 33.1089 97.7493C33.2573 98.0373 33.3315 98.3907 33.3315 98.8096C33.3315 99.2547 33.2442 99.6343 33.0697 99.9485C32.8951 100.263 32.6638 100.52 32.3759 100.721C32.0879 100.913 31.7562 101.053 31.3809 101.14C31.0057 101.227 30.6173 101.271 30.2159 101.271C29.6486 101.271 29.1206 101.201 28.6319 101.061C28.1431 100.922 27.7199 100.751 27.3621 100.551L27.637 99.5951C27.8028 99.7085 27.9686 99.8176 28.1344 99.9223C28.3002 100.018 28.4791 100.101 28.6711 100.171C28.8719 100.241 29.0901 100.298 29.3257 100.341C29.5613 100.385 29.8319 100.407 30.1373 100.407C30.53 100.407 30.866 100.372 31.1453 100.302C31.4246 100.232 31.6515 100.136 31.826 100.014C32.0006 99.8831 32.1271 99.7303 32.2057 99.5558C32.2842 99.3813 32.3235 99.1936 32.3235 98.9929C32.3235 98.6962 32.2537 98.4474 32.114 98.2467C31.9744 98.0373 31.7911 97.8584 31.5642 97.71C31.346 97.5616 31.1017 97.4394 30.8311 97.3434C30.5693 97.2387 30.3075 97.1427 30.0457 97.0554C29.6704 96.9333 29.33 96.8024 29.0246 96.6627C28.7191 96.5231 28.4573 96.3573 28.2391 96.1653C28.0297 95.9733 27.8639 95.7507 27.7417 95.4976C27.6282 95.2446 27.5715 94.9435 27.5715 94.5944C27.5715 94.2016 27.6413 93.87 27.781 93.5995C27.9293 93.3202 28.1257 93.0933 28.3701 92.9187C28.6231 92.7442 28.9199 92.6177 29.2602 92.5391C29.6006 92.4518 29.9671 92.4082 30.3599 92.4082C30.8311 92.4082 31.2849 92.4562 31.7213 92.5522C32.1577 92.6482 32.5286 92.766 32.834 92.9057L32.5591 93.9136C32.4195 93.7915 32.2537 93.6911 32.0617 93.6126C31.8784 93.5253 31.682 93.4598 31.4726 93.4162C31.2719 93.3638 31.0711 93.3289 30.8704 93.3115C30.6697 93.2853 30.482 93.2722 30.3075 93.2722C29.7577 93.2722 29.3213 93.3769 28.9984 93.5864C28.6842 93.7871 28.5271 94.11 28.5271 94.5551Z" fill="white"/>
<path d="M41.4449 99.8831L44.3773 92.4737H45.634V101.114H44.6522V94.5813L42.0078 101.114H40.8297L38.1722 94.5682V101.114H37.1904V92.4737H38.5126L41.4449 99.8831Z" fill="white"/>
<path d="M57.3997 101.114H56.287L55.0172 98.2074H51.1554L50.0034 101.114H48.9561L52.4121 92.4737H53.6034L57.3997 101.114ZM51.5219 97.2911H54.6113L52.9881 93.5733L51.5219 97.2911Z" fill="white"/>
<path d="M60.5494 92.4737C60.8548 92.4562 61.1777 92.4431 61.5181 92.4344C61.8672 92.4169 62.1945 92.4082 62.4999 92.4082C62.9712 92.4082 63.3988 92.4649 63.7828 92.5784C64.1668 92.6831 64.4941 92.8402 64.7646 93.0497C65.0439 93.2591 65.2577 93.5209 65.4061 93.8351C65.5632 94.1406 65.6417 94.494 65.6417 94.8955C65.6417 95.454 65.4846 95.9515 65.1704 96.3878C64.8563 96.8242 64.3719 97.1296 63.7174 97.3042L67.0293 101.114H65.8119L62.5785 97.422C62.1945 97.422 61.8454 97.4089 61.5312 97.3827V101.114H60.5494V92.4737ZM62.5785 93.2722C62.3952 93.2722 62.2119 93.2766 62.0286 93.2853C61.8541 93.2853 61.6883 93.2897 61.5312 93.2984V96.5318C61.6883 96.5493 61.8541 96.558 62.0286 96.558C62.2119 96.558 62.4039 96.558 62.6046 96.558C63.2504 96.558 63.7348 96.4096 64.0577 96.1129C64.3894 95.8075 64.5552 95.3667 64.5552 94.7907C64.5552 94.3369 64.4068 93.9704 64.1101 93.6911C63.8221 93.4118 63.3115 93.2722 62.5785 93.2722Z" fill="white"/>
<path d="M75.463 93.39H72.7008V101.114H71.719V93.39H68.9569V92.4737H75.463V93.39Z" fill="white"/>
<path d="M89.8635 93.9136C89.5843 93.7304 89.2395 93.5777 88.8294 93.4555C88.4192 93.3333 87.9523 93.2722 87.4286 93.2722C86.8439 93.2722 86.3508 93.3595 85.9494 93.534C85.5479 93.6998 85.2207 93.9355 84.9676 94.2409C84.7232 94.5464 84.5443 94.9173 84.4308 95.3536C84.3261 95.7813 84.2737 96.2569 84.2737 96.7805C84.2737 97.9762 84.5356 98.8794 85.0592 99.4903C85.5828 100.101 86.3639 100.407 87.4025 100.407C87.9523 100.407 88.4585 100.328 88.921 100.171C89.3835 100.014 89.7544 99.822 90.0337 99.5951L90.2955 100.472C89.9464 100.682 89.5232 100.869 89.0257 101.035C88.537 101.192 87.9828 101.271 87.3632 101.271C86.6476 101.271 86.0279 101.153 85.5043 100.917C84.9807 100.682 84.5443 100.363 84.1952 99.9616C83.8548 99.5602 83.6018 99.0976 83.4359 98.574C83.2701 98.0416 83.1872 97.4787 83.1872 96.8853C83.1872 96.2656 83.2788 95.6853 83.4621 95.1442C83.6454 94.6031 83.9159 94.1318 84.2737 93.7304C84.6403 93.3202 85.0897 92.9973 85.6221 92.7617C86.1632 92.526 86.7916 92.4082 87.5072 92.4082C87.9785 92.4082 88.4497 92.4606 88.921 92.5653C89.3923 92.6613 89.7981 92.7966 90.1384 92.9711L89.8635 93.9136Z" fill="white"/>
<path d="M101.313 101.114H100.2L98.9303 98.2074H95.0685L93.9165 101.114H92.8692L96.3252 92.4737H97.5165L101.313 101.114ZM95.435 97.2911H98.5245L96.9012 93.5733L95.435 97.2911Z" fill="white"/>
<path d="M108.717 99.8831L111.649 92.4737H112.906V101.114H111.924V94.5813L109.28 101.114H108.102L105.444 94.5682V101.114H104.462V92.4737H105.785L108.717 99.8831Z" fill="white"/>
<path d="M117.459 92.4737H117.511C117.79 92.4562 118.1 92.4431 118.441 92.4344C118.781 92.4169 119.104 92.4082 119.409 92.4082C119.881 92.4082 120.308 92.4693 120.692 92.5915C121.076 92.7049 121.403 92.8795 121.674 93.1151C121.953 93.3507 122.167 93.6431 122.315 93.9922C122.472 94.3326 122.551 94.7296 122.551 95.1835C122.551 95.55 122.49 95.8947 122.368 96.2176C122.246 96.5405 122.062 96.8242 121.818 97.0685C121.574 97.3129 121.259 97.5093 120.875 97.6576C120.5 97.7973 120.059 97.8671 119.553 97.8671C119.134 97.8671 118.763 97.854 118.441 97.8278V101.114H117.459V92.4737ZM119.488 93.2722C119.305 93.2722 119.121 93.2766 118.938 93.2853C118.763 93.2853 118.598 93.2897 118.441 93.2984V96.9638C118.755 96.99 119.113 97.0031 119.514 97.0031C120.16 97.0031 120.644 96.8416 120.967 96.5187C121.299 96.1871 121.464 95.7071 121.464 95.0787C121.464 94.8082 121.43 94.5638 121.36 94.3456C121.29 94.1187 121.177 93.9267 121.019 93.7696C120.871 93.6126 120.67 93.4904 120.417 93.4031C120.164 93.3158 119.854 93.2722 119.488 93.2722Z" fill="white"/>
<path d="M133.117 101.114H132.004L130.734 98.2074H126.873L125.721 101.114H124.673L128.129 92.4737H129.321L133.117 101.114ZM127.239 97.2911H130.329L128.705 93.5733L127.239 97.2911Z" fill="white"/>
<path d="M137.248 101.114H136.267V92.4737H137.248V101.114Z" fill="white"/>
<path d="M148.46 100.394C148.067 100.655 147.618 100.869 147.111 101.035C146.614 101.192 146.055 101.271 145.436 101.271C144.72 101.271 144.101 101.153 143.577 100.917C143.053 100.682 142.617 100.363 142.268 99.9616C141.928 99.5602 141.674 99.0976 141.509 98.574C141.343 98.0416 141.26 97.4787 141.26 96.8853C141.26 96.2656 141.352 95.6853 141.535 95.1442C141.718 94.6031 141.989 94.1318 142.346 93.7304C142.713 93.3202 143.162 92.9973 143.695 92.7617C144.236 92.526 144.864 92.4082 145.58 92.4082C146.086 92.4082 146.579 92.4606 147.059 92.5653C147.539 92.6613 147.967 92.7966 148.342 92.9711L148.067 93.9136C147.788 93.7304 147.426 93.5777 146.981 93.4555C146.544 93.3333 146.051 93.2722 145.501 93.2722C144.917 93.2722 144.424 93.3595 144.022 93.534C143.621 93.6998 143.293 93.9355 143.04 94.2409C142.796 94.5464 142.617 94.9173 142.504 95.3536C142.399 95.7813 142.346 96.2569 142.346 96.7805C142.346 97.9762 142.608 98.8794 143.132 99.4903C143.656 100.101 144.437 100.407 145.475 100.407C145.859 100.407 146.217 100.367 146.549 100.289C146.889 100.21 147.199 100.11 147.478 99.9878V97.5529H148.46V100.394Z" fill="white"/>
<path d="M153.551 94.0446V101.114H152.569V92.4737H153.76L158.211 99.5558V92.4737H159.193V101.114H158.001L153.551 94.0446Z" fill="white"/>
<path d="M10.2961 95.4072L12.9143 92.7891L15.5325 95.4072L12.9143 100.644L10.2961 95.4072Z" fill="#F03C23"/>
<path d="M171.022 95.4072L173.64 92.7891L176.259 95.4072L173.64 100.644L171.022 95.4072Z" fill="#F03C23"/>
</svg>
