<svg width="376" height="101" viewBox="0 0 376 101" fill="none" xmlns="http://www.w3.org/2000/svg">
<path d="M2.72534 9.0506C0.981445 12.4732 0.981445 16.9536 0.981445 25.9145V28.7144C0.981445 35.2923 0.981445 40.8669 1.10058 45.6719H0.981445C0.981445 61.0328 0.981445 68.7133 3.14194 74.8876C7.01165 85.9466 15.7067 94.6417 26.7657 98.5114C32.94 100.672 40.6205 100.672 55.9814 100.672H103.924C104.572 100.672 104.896 100.672 105.203 100.656C108.536 100.485 111.647 98.9335 113.789 96.3745C113.987 96.1384 114.182 95.8797 114.572 95.3623C114.962 94.8449 115.156 94.5862 115.354 94.3501C116.792 92.6326 118.666 91.3689 120.751 90.6719H256.393C258.477 91.3689 260.352 92.6326 261.789 94.3501C261.987 94.5862 262.182 94.8449 262.572 95.3623C262.962 95.8797 263.156 96.1384 263.354 96.3745C265.496 98.9335 268.607 100.485 271.94 100.656C272.248 100.672 272.572 100.672 273.219 100.672H320.981C336.342 100.672 344.023 100.672 350.197 98.5114C361.256 94.6417 369.951 85.9466 373.821 74.8876C375.981 68.7133 375.981 61.0328 375.981 45.6719H375.862C375.981 40.8669 375.981 35.2923 375.981 28.7144V25.9145C375.981 16.9536 375.981 12.4732 374.238 9.0506C372.704 6.04001 370.256 3.59232 367.245 2.05835C363.823 0.314453 359.342 0.314453 350.381 0.314453H26.5814C17.6206 0.314453 13.1402 0.314453 9.7176 2.05835C6.707 3.59232 4.25932 6.04001 2.72534 9.0506Z" fill="#F03C23"/>
</svg>
