<svg width="48" height="53" viewBox="0 0 48 53" fill="none" xmlns="http://www.w3.org/2000/svg">
<path d="M10.6972 50.3024C14.2476 50.9454 17.9903 50.2901 21.1986 48.6391C23.7313 47.3358 26.0305 45.3004 26.9454 42.6029C27.3255 41.4816 27.4211 40.2697 27.2571 39.0924C27.008 37.304 26.1599 35.595 24.8001 34.4043C22.7211 32.584 19.7256 32.06 17.104 32.8554C15.3209 33.3965 13.7572 34.5491 12.7618 36.1301C11.7271 37.7734 11.465 39.752 11.8044 41.6451C11.9178 42.2777 12.0399 42.6441 12.0399 42.6441C5.26751 36.282 14.9816 28.8254 11.6296 24.7209C8.27751 20.6163 0 27.3888 0 27.3888C0.957728 18.222 14.9132 19.8638 12.724 16.1697C10.535 12.4756 3.42046 13.5017 3.42046 13.5017C10.1246 6.18196 20.9201 14.7591 22.0831 11.8517C23.3145 8.77328 15.4605 7.00288 15.4605 7.00288C21.1596 5.48963 24.8325 8.16584 25.9955 9.46561C27.1584 10.7654 29.4719 11.592 28.5265 9.53402C26.5981 5.33568 27.0598 -0.000236511 27.0598 -0.000236511C27.9491 3.42022 31.605 8.37106 34.0678 9.46561C36.5305 10.5602 36.0516 11.3127 36.5989 12.9545C37.1462 14.5963 37.9671 15.8277 37.9671 15.8277C37.9671 15.8277 36.941 15.4856 35.778 13.8438C34.615 12.202 31.3314 11.5179 31.605 12.9545C31.6309 13.0909 31.6842 13.2213 31.7612 13.3486C34.9829 16.1475 40.5193 17.6322 44.3503 19.3424C46.5342 20.3174 48.3522 19.8042 47.9418 21.3434C47.7361 22.1146 47.3261 22.2156 46.8643 23.8574C46.4025 25.4993 44.8633 25.294 44.8633 25.294C44.8633 25.294 45.9579 24.8494 45.8895 23.447C45.8578 22.7989 42.2467 22.2156 40.964 20.8817C40.2489 20.138 38.3804 19.5068 36.8667 19.0936C36.2429 18.9487 35.4993 18.7605 34.6875 18.5753C34.6875 18.5753 35.4743 19.5989 37.8394 20.4712C40.2046 21.3434 42.3493 24.5758 43.1188 25.0375C43.8885 25.4993 44.6581 24.2166 44.6581 24.2166C45.0173 25.1915 43.6832 25.8072 43.7347 26.5254C43.7859 27.2437 41.9902 28.8342 39.1682 24.5244C36.3471 20.2158 31.2184 19.719 31.2154 19.7186C29.7562 19.5773 27.8622 18.849 26.4619 19.5682C24.1116 20.7752 27.0238 23.9111 27.9116 25.0339C29.2449 26.7203 30.6668 28.3476 31.7866 30.1899C33.6785 33.3025 34.9509 36.8179 34.6623 40.5072C34.5639 41.7648 34.2887 43.0096 33.8223 44.1828C32.4436 47.6507 29.2698 50.4498 25.5767 50.9854C28.7741 49.1076 31.3969 46.086 32.2976 42.4889C33.2078 38.854 32.698 34.8025 30.7539 31.6561C29.5007 29.6277 27.4836 28.0242 25.7073 26.4336C24.4205 25.2811 23.0313 24.1762 22.1757 22.6755C21.3751 21.2712 21.1616 19.3907 22.0527 18.0752C21.2023 19.2709 20.8662 20.8249 21.162 22.2637C22.0245 26.4583 26.5989 28.0968 28.921 31.2694C30.7975 33.833 31.7145 37.1637 31.5648 40.3253C31.2359 47.2726 23.9708 51.304 17.778 52.1515C16.2322 52.363 14.6588 52.3803 13.1111 52.1778C8.44951 51.5679 4.01848 48.8579 1.69793 44.7692C3.8215 47.6862 7.14673 49.6592 10.6972 50.3024Z" fill="#FCFCFC"/>
</svg>
